<?xml version="1.0" standalone="no"?>
<!DOCTYPE svg PUBLIC "-//W3C//DTD SVG 1.1//EN" "http://www.w3.org/Graphics/SVG/1.1/DTD/svg11.dtd" >
<svg xmlns="http://www.w3.org/2000/svg">
<metadata>
Created by FontForge 20120731 at Wed Dec 28 09:26:20 2016
 By admin
</metadata>
<defs>
<font id="iconfont" horiz-adv-x="1024" >
  <font-face 
    font-family="iconfont"
    font-weight="500"
    font-stretch="normal"
    units-per-em="1024"
    panose-1="2 0 6 3 0 0 0 0 0 0"
    ascent="896"
    descent="-128"
    x-height="792"
    bbox="-0.5 -212.682 1266 896.5"
    underline-thickness="0"
    underline-position="0"
    unicode-range="U+0078-F009A"
  />
<missing-glyph 
 />
    <glyph glyph-name=".notdef" 
 />
    <glyph glyph-name=".null" horiz-adv-x="0" 
 />
    <glyph glyph-name="nonmarkingreturn" horiz-adv-x="341" 
 />
    <glyph glyph-name="x" unicode="x" horiz-adv-x="1001" 
d="M281 543q-27 -1 -53 -1h-83q-18 0 -36.5 -6t-32.5 -18.5t-23 -32t-9 -45.5v-76h912v41q0 16 -0.5 30t-0.5 18q0 13 -5 29t-17 29.5t-31.5 22.5t-49.5 9h-133v-97h-438v97zM955 310v-52q0 -23 0.5 -52t0.5 -58t-10.5 -47.5t-26 -30t-33 -16t-31.5 -4.5q-14 -1 -29.5 -0.5
t-29.5 0.5h-32l-45 128h-439l-44 -128h-29h-34q-20 0 -45 1q-25 0 -41 9.5t-25.5 23t-13.5 29.5t-4 30v167h911zM163 247q-12 0 -21 -8.5t-9 -21.5t9 -21.5t21 -8.5q13 0 22 8.5t9 21.5t-9 21.5t-22 8.5zM316 123q-8 -26 -14 -48q-5 -19 -10.5 -37t-7.5 -25t-3 -15t1 -14.5
t9.5 -10.5t21.5 -4h37h67h81h80h64h36q23 0 34 12t2 38q-5 13 -9.5 30.5t-9.5 34.5q-5 19 -11 39h-368zM336 498v228q0 11 2.5 23t10 21.5t20.5 15.5t34 6h188q31 0 51.5 -14.5t20.5 -52.5v-227h-327z" />
    <glyph glyph-name="yundongxie" unicode="&#xf0086;" 
d="M865 608q20 6 34 3t25 -12.5t17.5 -25.5t10.5 -35l7 -39q6 -29 10.5 -66t6.5 -77.5t0 -75t-11 -58.5t-27 -29q-54 -15 -88.5 -13.5t-62 8.5t-55 15.5t-68.5 9.5q-43 1 -98.5 -10.5t-121.5 -22t-141.5 -12.5t-158.5 18q-10 3 -25 7t-29.5 11t-27.5 17.5t-17 27.5
q-8 30 2 52t28 32q22 12 44.5 13.5t53.5 4t75.5 13.5t111.5 42q54 24 95 57t70 65.5t47 61t26 44.5q19 40 37.5 53.5t47.5 11.5q32 -2 51.5 -21t37.5 -38t38.5 -31.5t54.5 -0.5zM565 258q29 9 61.5 15t62.5 6q37 0 64 -9.5t49 -18.5q9 -4 16.5 -2.5t11 7t-0.5 15t-16 20.5
q-9 7 -21.5 20.5t-27 26.5t-31 22.5t-33 9.5t-33.5 -7t-34 -17.5t-34.5 -23.5t-36.5 -25q-14 -9 -18.5 -18t-2.5 -14t9 -7.5t15 0.5zM621.5 575q-12.5 0 -20.5 -8.5t-8 -20.5q0 -11 8 -20t20.5 -9t20.5 9t8 20q0 12 -8 20.5t-20.5 8.5zM560 495q-12 0 -21 -9t-9 -21t9 -21
t21 -9t21 9t9 21t-9 21t-21 9z" />
    <glyph glyph-name="pixie" unicode="&#xf0093;" 
d="M878 702q20 6 33 -7.5t21 -31.5q9 -19 23 -62t18 -106t-5 -96.5t-14 -33.5q-3 0 -14 1t-28 2t-39 1t-47 -1q-9 0 -30 0.5t-48.5 -1.5t-60 -10.5t-64.5 -26.5q-38 -22 -65.5 -39.5t-61.5 -30.5t-83 -20.5t-131 -7.5q-48 0 -88.5 3t-71.5 7q-36 4 -68 10q-11 14 -18 32
q-6 14 -8.5 34t5.5 42q7 20 21.5 33t32.5 19.5t39.5 7.5t43.5 -1q44 -5 84.5 4.5t76 26.5t65 39t53 43.5t38.5 41.5t24 37t14 31t9 24q8 22 24.5 30.5t37.5 1.5q33 -10 73.5 -13t92.5 -1q28 1 46.5 3.5t31.5 5t21.5 5t16.5 4.5zM568 630q-11 0 -19.5 -9t-8.5 -21
q0 -11 8.5 -20t19.5 -9q13 0 21.5 9t8.5 20q0 12 -8.5 21t-21.5 9zM504 549q-12 0 -21 -9t-9 -21q0 -13 9 -22t21 -9q13 0 22 9t9 22q0 12 -9 21t-22 9zM937 328h-19h-37h-45h-46q-22 0 -38 -0.5t-20 -0.5q-11 0 -20 -9t-9 -31q0 -19 10.5 -27t21.5 -8h200q11 0 21 7t10 30
q0 20 -8.5 29t-20.5 10z" />
    <glyph glyph-name="gaogenxie" unicode="&#xf009a;" 
d="M843 566q-25 -2 -50 -13q-23 -10 -49 -30.5t-52 -56.5q-23 -35 -44.5 -66.5t-41.5 -64t-40 -66t-41 -72.5q-26 -50 -69.5 -72.5t-104.5 -23.5q-37 0 -73 6.5t-69.5 18.5t-62 29.5t-49.5 40.5q-54 59 -53.5 105.5t54.5 70.5q25 11 51 17.5t48 10.5q25 4 49 7
q14 -18 37 -29q19 -10 48 -16t71 2q34 5 60 18.5t49.5 34t45.5 47t46 57.5q17 20 38.5 50t44 63.5l45 67t39.5 61.5q18 29 34 46.5t30 27.5t26.5 13t25.5 3q8 0 24 -15.5t31 -40.5t27.5 -56.5t12.5 -64.5q0 -28 -4 -46t-9.5 -32t-11 -27.5t-7.5 -31.5l-3.5 -49t-5.5 -81.5
t-6.5 -97.5t-6 -95.5t-4.5 -77t-2 -39.5h-40l-1 308q0 34 1 64t-1.5 51t-11 32.5t-25.5 11.5z" />
    <glyph glyph-name="muying" unicode="&#xe60d;" 
d="M143 331v-397q0 -34 24 -58t58 -24h575q27 0 48.5 16t29.5 41h3v422q0 30 -19.5 53t-49.5 27q26 33 26 75v9q0 51 -36 87t-87 36h-131q-4 0 -4 4v53q0 29 -21 50.5t-51 21.5t-51.5 -21.5t-21.5 -50.5v-53q0 -4 -3 -4h-131q-51 0 -87.5 -36t-36.5 -87v-9q0 -43 27 -77
q-26 -6 -43.5 -28t-17.5 -50zM301 569h131q22 0 37 15.5t15 37.5v53q0 9 7 16t16.5 7t16.5 -7t7 -16v-53q0 -22 15.5 -37.5t37.5 -15.5h131q30 0 52 -21.5t22 -52.5v-9q0 -29 -20.5 -50.5t-50.5 -23.5h-421q-30 2 -50.5 23.5t-20.5 51.5v8q0 31 22 52.5t53 21.5zM301 363
h414h1.5h1.5h82q13 0 23 -9.5t10 -22.5l-1 -397q0 -14 -9.5 -23.5t-22.5 -9.5h-575q-14 0 -23.5 9.5t-9.5 23.5v397q0 13 9.5 22.5t23.5 9.5h72h2h2zM248 216h159q8 0 13 5.5t5 13t-5 13t-13 5.5h-159q-8 0 -13 -5.5t-5 -13t5 -13t13 -5.5zM248 4h159q8 0 13 5.5t5 13
t-5 12.5t-13 5h-159q-8 0 -13 -5t-5 -12.5t5 -13t13 -5.5zM248 110h269q7 0 12.5 5.5t5.5 13t-5.5 13t-12.5 5.5h-269q-8 0 -13 -5.5t-5 -13t5 -13t13 -5.5z" />
    <glyph glyph-name="icon16699987" unicode="&#xe65f;" 
d="M577 374q3 -9 6 -24l5 -33l32 -9q60 -16 119 -16q64 0 122 19q18 -88 8 -201l-1 -2v-2v-35h-716v33q4 7 22 18.5t37 18.5q63 14 122.5 39.5t97 49t70 50.5t43.5 38t17 18l6 8l3 9q2 8 7 21zM549 442q-11 -23 -28 -73q-4 -5 -13 -14.5t-39.5 -35t-65 -47t-91 -45.5
t-116.5 -37q-4 -1 -10 -3.5t-22.5 -11.5t-29 -18t-23 -23t-10.5 -28v-86h819v86q0 7 1 20t1.5 49t-1.5 69t-9 71.5t-19 64.5q-7 -4 -19 -10t-52.5 -16.5t-82.5 -10.5q-52 0 -106 15q-3 24 -11.5 41t-17 25t-21 12.5t-19 5t-15.5 0.5v0zM218 276v29q4 6 19.5 16t32.5 16
q56 13 108 35t84.5 42.5t61.5 44.5t38.5 34t14.5 16l5 7l3 8q3 7 6 18q4 -7 6 -21l4 -29l28 -8q53 -14 105 -14q56 0 107 16q7 -34 9 -83q20 9 44 17q-4 83 -25 128q-6 -4 -17 -9.5t-46 -15t-72 -9.5q-46 0 -93 14q-4 26 -13 42.5t-22 22.5t-20.5 7.5t-19.5 1.5
q-9 -21 -24 -64q-4 -5 -11.5 -13t-34.5 -30.5t-57.5 -41.5t-79.5 -40t-102 -32q-3 -2 -9 -4t-20 -9.5t-25 -16t-20 -20.5t-9 -25v-75h62q41 22 82 45h-100v0z" />
    <glyph glyph-name="quanbu" unicode="&#xe614;" 
d="M94 676h836v-163h-836v163zM94 366h836v-163h-836v163zM94 71h836v-163h-836v163z" />
    <glyph glyph-name="xiebaopeishi" unicode="&#xe615;" 
d="M177 683q18 0 49 -18t66 -51q80 -76 118 -167q66 -157 115 -222q30 -40 67 -68q33 -25 79 -45q27 -12 78 -35q112 -48 152 -69q29 -16 45 -28q5 -4 8 -7q-13 -17 -37 -33q-36 -24 -54 -24h-297q-15 0 -43 37q-26 34 -77 131q-24 46 -37 69q-29 52 -64 89q-21 23 -42 36
q-32 21 -64 21t-55 -25q-11 -11 -19 -29q-9 -21 -17 -56q-11 -51 -20 -139q-1 -8 -2 -17q-5 95 -16 175q-12 85 -36 177q-9 32 -9 38q0 29 6.5 69t14.5 65q20 66 55 102q22 22 36 24zM177 747q-37 0 -81.5 -43t-71.5 -128q-9 -29 -16 -74.5t-7 -78.5q0 -13 10.5 -53.5
t22.5 -94.5t22.5 -167.5t10.5 -254.5h111q16 382 61 382q25 0 57 -34t57 -80q12 -22 33.5 -61.5t34 -63.5t32.5 -54.5t36 -48t36.5 -29.5t40.5 -12h297q43 0 101.5 43.5t58.5 78.5q0 13 -8 26t-27 27t-36.5 25.5t-52.5 28t-59 27t-70 30.5t-73 32q-76 34 -120.5 93
t-107.5 209q-43 103 -133.5 189t-158.5 86v0z" />
    <glyph glyph-name="xiebaopeishi1" unicode="&#xe624;" horiz-adv-x="1027" 
d="M177 684q18 0 49.5 -18t66.5 -51q80 -77 118 -167q67 -159 116 -224q30 -40 66 -68q34 -25 80 -45q27 -12 79 -35q112 -49 152 -70q29 -15 45 -28q5 -4 8 -7q-13 -17 -37 -33q-36 -24 -54 -24h-298q-15 0 -44 37q-25 34 -77 132q-24 46 -37 69q-29 52 -64 89
q-21 23 -43 37q-31 21 -63 21q-33 0 -56 -25q-11 -12 -19 -30q-9 -21 -17 -56q-11 -51 -20 -139q-1 -8 -2 -17q-5 95 -16 175q-12 86 -36 178q-9 32 -9 38q0 29 6.5 69.5t13.5 65.5q21 66 57 102q21 22 35 24zM177 748q-37 0 -82 -43t-71 -128q-9 -30 -16 -75t-7 -79
q0 -13 10 -53.5t22.5 -95t23 -168.5t10.5 -256h111q16 384 62 384q25 0 56.5 -34t57.5 -80q12 -22 33.5 -62t34 -63.5t32.5 -54.5t36 -48.5t36.5 -30t41.5 -12.5h298q43 0 101.5 44t58.5 79q0 13 -7.5 26.5t-26.5 27.5t-37 25.5t-53 28t-59 27t-70.5 30.5t-73.5 32
q-76 34 -120.5 93t-108.5 210q-43 103 -133.5 189.5t-159.5 86.5v0z" />
    <glyph glyph-name="moban2" unicode="&#xe63b;" 
d="M795 -128v459h160q28 0 48.5 -20.5t20.5 -48.5v-321q0 -28 -20.5 -48.5t-48.5 -20.5h-160zM795 437v68h160h1v0l1 1v321q0 1 -0.5 1.5t-1.5 0.5h-160v67h160q28 0 48.5 -20.5t20.5 -48.5v-321q0 -28 -20.5 -48.5t-48.5 -20.5h-160zM229 896h161q28 0 48.5 -20.5
t20.5 -48.5v-321q0 -28 -20.5 -48.5t-48.5 -20.5h-161v68h161h1v0v1v321q0 1 -0.5 1.5l-0.5 0.5h-161v67zM795 896v-67h-161l-0.5 -0.5t-0.5 -1.5v-321v-1v0h1h161v-68h-161q-28 0 -48.5 20.5t-20.5 48.5v321q0 28 20.5 48.5t48.5 20.5h161zM795 331v-459h-161
q-28 0 -48.5 20.5t-20.5 48.5v321q0 28 20.5 48.5t48.5 20.5h161zM229 -128v67h161l1 1v0v1v321v1v0h-1h-161v68h161q28 0 48.5 -20.5t20.5 -48.5v-321q0 -28 -20.5 -48.5t-48.5 -20.5h-161v0zM69 896h160v-67h-160q-1 0 -1.5 -0.5t-0.5 -1.5v-321l1 -1v0h1h160v-68h-160
q-28 0 -48.5 20.5t-20.5 48.5v321q0 28 20.5 48.5t48.5 20.5v0zM229 331v-68h-160h-1v0l-1 -1v-321q0 -1 1 -1v0q0 -1 1 -1h160v-67h-160q-28 0 -48.5 20.5t-20.5 48.5v321q0 28 20.5 48.5t48.5 20.5h160z" />
    <glyph glyph-name="xiebaopeishi2" unicode="&#xe699;" 
d="M177 683q18 0 49 -18t66 -51q80 -76 118 -167q66 -157 115 -222q30 -40 67 -68q33 -25 79 -45q27 -12 78 -35q112 -48 152 -69q29 -16 45 -28q5 -4 8 -7q-13 -17 -37 -33q-36 -24 -54 -24h-297q-15 0 -43 37q-26 34 -77 131q-24 46 -37 69q-29 52 -64 89q-21 23 -42 36
q-32 21 -64 21t-55 -25q-11 -11 -19 -29q-9 -21 -17 -56q-11 -51 -20 -139q-1 -8 -2 -17q-5 95 -16 175q-12 85 -36 177q-9 32 -9 38q0 29 6.5 69t14.5 65q20 66 55 102q22 22 36 24zM177 747q-37 0 -81.5 -43t-71.5 -128q-9 -29 -16 -74.5t-7 -78.5q0 -13 10.5 -53.5
t22.5 -94.5t22.5 -167.5t10.5 -254.5h111q16 382 61 382q25 0 57 -34t57 -80q12 -22 33.5 -61.5t34 -63.5t32.5 -54.5t36 -48t36.5 -29.5t40.5 -12h297q43 0 101.5 43.5t58.5 78.5q0 13 -8 26t-27 27t-36.5 25.5t-52.5 28t-59 27t-70 30.5t-73 32q-76 34 -120.5 93
t-107.5 209q-43 103 -133.5 189t-158.5 86v0z" />
    <glyph glyph-name="yundong" unicode="&#xe649;" 
d="M808.5 669.5q-59.5 59.5 -136.5 91.5t-161 32t-160.5 -32t-136 -91.5t-91.5 -136t-32 -160.5t32 -160.5t91.5 -136t136 -91.5t160.5 -32t161 32t136.5 91.5t91 136t31.5 160.5t-31.5 160.5t-91 136zM876 373v3.5v3.5q-137 -3 -240 -93l-87 87l238 238q89 -103 89 -239z
M636 210l113 -114q-82 -71 -190 -85q4 113 77 199zM510 413l-84 84q89 103 92 241q131 -2 230 -87zM484 737q-12 -1 -21 -2q11 1 21 2zM463 735q-4 -113 -76 -199l-114 114q-13 -12 -20 -19q87 88 210 104zM235 611l113 -114q-85 -72 -198 -76q14 108 85 190zM146 373v-3.5
v-3.5q138 3 241 93l85 -85l-238 -238q11 -14 19 -21q-52 52 -79.5 118.5t-27.5 139.5zM150 421q-1 -8 -3 -20q1 9 3 20zM272 97l238 238l87 -86q-89 -103 -92 -241h3h3q-136 0 -239 89zM559 11q-11 -1 -20 -2q11 1 20 2zM788 135l-114 114q86 72 199 76q-14 -108 -85 -190z
M875 345q-1 -8 -2 -20q1 9 2 20z" />
    <glyph glyph-name="iconfontxiezi" unicode="&#xe608;" 
d="M1022 -24q-1 -10 0 -27.5t-3 -26.5q-25 -11 -52 -18t-55.5 -11.5t-57 -6.5t-54.5 -3q-65 -4 -129.5 -4t-128.5 2q-20 1 -32 3t-24 18q-9 11 -16.5 21.5t-14.5 22.5q-18 27 -32 57l-29 59q-11 21 -26 49t-32 58t-33.5 57t-31.5 44q-6 7 -13 7.5t-15 -2.5l-17 -4
q-8 -3 -16 -1q-13 -26 -19.5 -53.5t-10 -55t-6.5 -56t-10 -57.5q-7 -32 -9.5 -63t-2.5 -63q-1 -2 -0.5 -5.5t0.5 -5.5q-7 -2 -14 -2h-12q-6 0 -18.5 -1.5t-17.5 1.5q-1 8 0 14.5t0 15.5q-5 59 -9.5 120.5t-13 122.5t-21.5 119.5t-36 114.5q-12 37 -8.5 74.5t18 73.5t36 68.5
t44.5 58.5q100 -93 195.5 -190t190.5 -195q22 -21 42.5 -43.5t43 -43t48 -37t55.5 -26.5q27 -10 57 -10q8 -1 16.5 -1t16.5 2q4 7 8.5 12.5t10.5 10.5q12 10 26 16t29 6t29.5 -5.5t24.5 -17.5q15 -21 15 -43q0 -7 1 -10t2.5 -6t5 -5.5t7.5 -8.5q6 -9 6 -20q10 -4 20 -13
q22 -17 35 -45q2 -6 4 -12.5t3 -12.5q12 0 19 -4l6 -6q2 -4 5 -7z" />
    <glyph glyph-name="icon54" unicode="&#xe637;" 
d="M717 416q20 29 20 65v6q0 47 -34 81t-81 34h-56v4q0 33 -24 57t-57.5 24t-57 -24t-23.5 -57v-4h-56q-48 0 -81.5 -34t-33.5 -81v-6q0 -36 20 -65q-26 -12 -42 -36.5t-16 -53.5v-255q0 -41 29 -70t70 -29h381q41 0 70.5 29t29.5 70v255q0 29 -16 53.5t-42 36.5zM294 487
q0 22 15.5 37.5t38.5 15.5h86q13 0 22 9t9 22v35q0 8 6 14t14 6t13.5 -6t5.5 -14v-35q0 -13 9 -22t22 -9h87q22 0 38 -15.5t16 -37.5v-6q0 -22 -16 -37.5t-38 -15.5h-274q-23 0 -38.5 15.5t-15.5 37.5v6zM713 71q0 -15 -11 -26t-27 -11h-381q-16 0 -27 11t-11 26v255
q0 15 11 26.5t27 11.5h381q16 0 27 -11.5t11 -26.5v-255zM336 262h58q13 0 22 9t9 22t-9 22t-22 9h-58q-13 0 -21.5 -9t-8.5 -22t8.5 -22t21.5 -9zM463 232h-127q-13 0 -21.5 -9t-8.5 -22t8.5 -22t21.5 -9h127q13 0 22 9t9 22t-9 22t-22 9zM394 140h-58q-13 0 -21.5 -9
t-8.5 -22t8.5 -22t21.5 -9h58q13 0 22 9t9 22t-9 22t-22 9z" />
    <glyph glyph-name="icon56" unicode="&#xe639;" 
d="M869 312q-13 8 -28 3v102q0 17 -13.5 26t-28.5 3q-28 -11 -70 -9q-86 3 -166 66q-8 7 -19.5 6.5t-19.5 -8.5q-13 -12 -36 -30.5t-81 -55t-104 -49.5q-47 -7 -88 -30t-63 -57q-27 -44 -22 -102q1 -12 10 -19.5t21 -7.5h1q-3 -3 -5 -7q-42 -61 -21 -147q3 -10 11.5 -16.5
t18.5 -6.5h686q12 0 21 9t9 21v283q0 17 -13 26zM244 282q33 19 69 23q2 0 4 1q104 28 229 133q44 -30 90 -46q47 -17 94 -18q26 -1 50 3v-66q0 -4 1 -8h-7q-96 0 -186 71q-9 7 -20.5 7t-19.5 -8q-5 -5 -14.5 -13t-36.5 -29t-54 -39t-63.5 -36.5t-67.5 -27.5
q-70 -10 -121 -50q1 2 0 4q-6 65 53 99zM821 34h-629q-6 44 15 74q16 23 46.5 38t45 18t23.5 4q2 1 5 1q110 30 243 143q99 -69 204 -69q24 0 47 4v-213z" />
    <glyph glyph-name="muying1" unicode="&#xe6df;" 
d="M99 397v-528q0 -33 24 -57t57 -24h574q36 1 54.5 15.5t26.5 41.5v0v552q0 30 -19.5 53t-49.5 27q26 33 26 75v9q0 51 -36 87t-87 36h-131q-3 0 -3 3v53q0 30 -21.5 51t-51 21t-51 -21t-21.5 -51v-53q0 -3 -3 -3h-131q-51 0 -87 -36t-36 -87v-9q0 -43 27 -77
q-27 -6 -44 -28t-17 -50v0zM246 645h141q41 0 41 42v53q0 10 12.5 22t22 12t21.5 -12t12 -22v-53q0 -42 42 -42h143q30 0 52.5 -26.5t22.5 -57.5v-9q0 -29 -21 -50.5t-50 -23.5h-443q-29 2 -49.5 23.5t-20.5 50.5v9q0 30 26.5 57t57.5 27h-10zM256 442h413h1.5h2.5h92
q13 0 23 -15.5t10 -29.5v-528q0 -14 -10 -29.5t-23 -15.5h-585q-13 0 -28 16t-15 29v528q0 13 15 29t28 16h72h2.5h1.5v0zM203 283h159q8 0 13 5t5 13t-5 13t-13 5h-159q-7 0 -12.5 -5.5t-5.5 -13t5.5 -12.5t12.5 -5v0zM203 71h159q8 0 13 5.5t5 13t-5 12.5t-13 5h-159
q-7 0 -12.5 -5t-5.5 -12.5t5.5 -13t12.5 -5.5v0zM203 177h268q8 0 13.5 5.5t5.5 13t-5.5 12.5t-13.5 5h-268q-7 0 -12.5 -5t-5.5 -12.5t5.5 -13t12.5 -5.5v0zM203 177z" />
    <glyph glyph-name="shao05" unicode="&#xe607;" 
d="M921 257v0l-325 171l46 78q17 29 8.5 61.5t-37.5 49.5t-61.5 8.5t-49.5 -37.5l-68 -115h-91h-1h-290q-10 0 -17 -6.5t-7 -16.5v-195v-173v-3.5v-3.5v-59q0 -33 24 -57t57 -24h806q34 0 58 24t24 57v117v1q-1 39 -21 72t-55 51zM346 102v38q0 45 -27 81.5t-69 50.5
l105 154h142l211 -111l-144 -213h-218zM75 102v129h132q38 0 64.5 -26.5t26.5 -64.5v-38h-223zM899 215v0v0q18 -9 30 -24h-71q-38 0 -65 26.5t-27 64.5v0v0v3zM722 252q11 -47 49 -78t87 -31v0h91v-9v-1v-31h-328zM543 564q7 12 20.5 15.5t25.5 -3.5t15.5 -20.5t-3.5 -25.5
l-47 -80l-40 21q-5 2 -11 2h-14zM298 426l-100 -147h-123v147h223zM915 -18h-806q-14 0 -24 10t-10 24v39h247v0v0h627v-39q0 -14 -10 -24t-24 -10z" />
    <glyph glyph-name="icon5" unicode="&#xe61a;" 
d="M829 617q-86 86 -201.5 116.5t-231 0t-201.5 -116.5t-116.5 -201.5t0 -230.5t116.5 -201q65 -65 148.5 -98.5t168.5 -33.5t168.5 33.5t148.5 98.5q86 86 116.5 201t0 230.5t-116.5 201.5zM903 277q-68 7 -133 -12.5t-118 -64.5l-100 100l256 256q51 -58 75 -130.5
t20 -148.5zM652 121l116 -117q-78 -67 -178 -88q-11 115 62 205zM691 160q90 73 205 62q-20 -100 -88 -178zM768 596l-256 -256l-100 100q45 53 64.5 118.5t12.5 132.5q76 4 148 -20t131 -75zM333 440q-90 -73 -205 -62q20 100 88 178zM256 596q78 68 178 88
q11 -115 -62 -205zM121 323q68 -7 133 12.5t118 64.5l100 -100l-256 -256q-51 59 -75 131t-20 148zM256 4l256 257l100 -101q-45 -53 -64.5 -118t-12.5 -133q-76 -4 -148 20t-131 75z" />
    <glyph glyph-name="muying2" unicode="&#xe89c;" 
d="M99 397v-528q0 -33 24 -57t57 -24h574q36 1 54.5 15.5t26.5 41.5v0v552q0 30 -19.5 53t-49.5 27q26 33 26 75v9q0 51 -36 87t-87 36h-131q-3 0 -3 3v53q0 30 -21.5 51t-51 21t-51 -21t-21.5 -51v-53q0 -3 -3 -3h-131q-51 0 -87 -36t-36 -87v-9q0 -43 27 -77
q-27 -6 -44 -28t-17 -50v0zM246 645h141q41 0 41 42v53q0 10 12.5 22t22 12t21.5 -12t12 -22v-53q0 -42 42 -42h143q30 0 52.5 -26.5t22.5 -57.5v-9q0 -29 -21 -50.5t-50 -23.5h-443q-29 2 -49.5 23.5t-20.5 50.5v9q0 30 26.5 57t57.5 27h-10zM256 442h413h1.5h2.5h92
q13 0 23 -15.5t10 -29.5v-528q0 -14 -10 -29.5t-23 -15.5h-585q-13 0 -28 16t-15 29v528q0 13 15 29t28 16h72h2.5h1.5v0zM203 283h159q8 0 13 5t5 13t-5 13t-13 5h-159q-7 0 -12.5 -5.5t-5.5 -13t5.5 -12.5t12.5 -5v0zM203 71h159q8 0 13 5.5t5 13t-5 12.5t-13 5h-159
q-7 0 -12.5 -5t-5.5 -12.5t5.5 -13t12.5 -5.5v0zM203 177h268q8 0 13.5 5.5t5.5 13t-5.5 12.5t-13.5 5h-268q-7 0 -12.5 -5t-5.5 -12.5t5.5 -13t12.5 -5.5v0zM203 177z" />
    <glyph glyph-name="ad80" unicode="&#xe60b;" 
d="M987 560q-15 0 -26 10.5t-11 26.5q0 9 -6.5 15.5t-15.5 6.5h-832q-9 0 -15.5 -6.5t-6.5 -15.5q0 -16 -11 -26.5t-26 -10.5t-26 10.5t-11 26.5q0 40 28.5 68t67.5 28h832q39 0 67.5 -28t28.5 -68q0 -16 -11 -26.5t-26 -10.5v0zM928 -93h-832q-39 0 -67.5 28t-28.5 68
q0 15 11 26t26 11t26 -11t11 -26q0 -9 6.5 -15.5t15.5 -6.5h832q9 0 15.5 6.5t6.5 15.5q0 15 11 26t26 11t26 -11t11 -26q0 -40 -28.5 -68t-67.5 -28v0zM129 142v40h58v232l-64 -22l-4 41l91 31h21v-282h47v-40h-149v0zM394 320q-15 19 -15 49q0 41 29 68t75 27t75 -26.5
t29 -71.5q0 -33 -17 -60.5t-55 -60.5q-32 -27 -64 -63h141v-40h-215v22q52 57 112 113q53 48 53 89q0 26 -16 42t-44 16q-26 0 -42 -15t-16 -37q0 -18 12 -36l-42 -16v0zM729 223q27 -47 68 -47q28 0 45.5 16.5t17.5 43.5q0 25 -14.5 39t-39.5 14h-23v39h23q45 0 45 47
q0 22 -14.5 35.5t-38.5 13.5q-41 0 -65 -50l-36 22q33 68 101 68q44 0 71 -23t27 -63q0 -46 -43 -70q52 -20 52 -73q0 -45 -30.5 -72t-78.5 -27q-68 0 -104 60l37 27v0zM729 223z" />
    <glyph glyph-name="xiemao" unicode="&#xe66f;" 
d="M915 -125h-89q-15 0 -26 9.5t-14 24.5l-30 223l-97 -233q-10 -24 -37 -24h-456q-13 0 -23 7q-6 4 -13.5 11t-21 22.5t-21 36.5t-5.5 44q7 73 119 121q93 40 166 92.5t113 99.5t67 99.5t36 86.5t12 66q1 8 2 12q5 20 24.5 27t36.5 -4q29 -20 66 -31.5t66 -14.5t60 -2.5
t41 1.5t17 2q18 4 32.5 -8t14.5 -31v-597q0 -17 -11.5 -28.5t-28.5 -11.5zM861 -45h14v513q-117 -7 -209 33q-9 -41 -24.5 -81t-49 -92.5t-78.5 -99.5t-118 -96.5t-163 -88.5q-35 -15 -52.5 -30t-18.5 -25q-2 -14 18 -33h415l143 344q6 13 17.5 19.5t25 5t23 -11t11.5 -23.5
zM150 37q-13 0 -23 7q-6 4 -13 10.5t-19.5 21t-20 34.5t-4.5 42q6 69 111 114q156 67 236.5 172.5t75.5 236.5q-1 14 1 20q5 17 20.5 25.5t32.5 2.5q58 -22 112 -29t73 -5.5t25 3.5q17 4 31 -4.5t17.5 -24.5t-5 -30t-23.5 -18q-10 -3 -27.5 -5t-69.5 1.5t-107 18.5
q-9 -141 -101.5 -253.5t-258.5 -184.5q-32 -13 -47.5 -26t-16.5 -22q-1 -8 7.5 -18t16.5 -16q13 -10 16 -26t-6 -30q-12 -17 -33 -17z" />
    <glyph glyph-name="iconnanxie" unicode="&#xe655;" 
d="M945 401.5q-12 9.5 -27 5.5v0q-1 0 -1 -1v140q0 16 -12 25t-27 5q-46 -13 -106 -10q-115 5 -186 78q-8 8 -19.5 9t-21.5 -6q-97 -75 -154.5 -111t-113.5 -56q-15 -4 -35 -10.5t-55.5 -21.5t-68 -41t-49.5 -58q-36 -65 -8 -143q5 -13 18 -18q-6 -8 -10 -16
q-37 -66 -8 -145q8 -20 29 -20h836q13 0 22 9t9 22v339q0 15 -12 24.5zM122 319q12 20 34 38.5t43 29t44.5 19t33 11t14.5 3.5q2 1 4 1q60 21 118 56.5t149 104.5q42 -36 96 -55q52 -20 114 -22q41 -2 83 4v-112q-15 -1 -30 -1q-135 0 -215 81q-8 8 -19.5 8.5t-20.5 -5.5
q-103 -77 -163.5 -114.5t-119.5 -57.5q-81 -18 -145 -61h-29q-9 39 9 72zM895 69h-782q-9 40 9 73q12 22 35.5 41t45.5 30t47.5 20t35.5 11.5t16 3.5q1 1 3 1q63 21 123.5 58t157.5 108q95 -80 239 -80q35 0 70 5v-271z" />
    <glyph glyph-name="iconnvxie" unicode="&#xe658;" 
d="M900 577q-7 23 -21 44t-28 34t-30.5 24.5t-23.5 15l-11 5.5q-1 1 -3 1.5t-7 2t-8 -0.5l-17 -10q-15 -13 -36 -32.5t-67.5 -71t-74.5 -94.5q-10 -16 -28 -44q-24 -37 -35.5 -54t-30 -43t-30 -36.5t-29 -25t-34 -19.5t-37.5 -8.5t-46 -2.5q-16 2 -34 2q-52 0 -89 -21.5
t-54 -61.5q-8 -20 -8 -41t5.5 -38t16 -34t21 -29t22 -23t17 -15t8.5 -6q7 -5 20 -12t57 -16.5t99 -9.5q24 0 49 1q4 0 10 1t20.5 6.5t27 14t26 25.5t21.5 40q34 99 77 175t76 97q5 -1 7 -3q5 -5 2 -22q-8 -59 1 -308l1 -22h87l-1 23q2 6 0.5 35t3.5 85.5t12 113.5t25 118.5
t44 101.5q47 71 27 138v0zM835 464q-78 -119 -91 -378q-4 162 2 200q5 37 -13 58q-16 19 -51 19l-4 -1l-3 -2q-48 -23 -97 -110.5t-83 -189.5q-5 -14 -13.5 -25t-16.5 -16.5t-16.5 -9t-12 -4.5t-6.5 -1q-24 -1 -46 -1q-47 0 -85.5 8t-48.5 13t-15 8q-1 1 -5 4.5t-13 11
t-16.5 16.5t-17 21.5t-13.5 24.5t-6 26.5t5 26.5q23 55 100 55q15 0 27 -2h3q24 -1 45.5 1t38.5 5.5t34.5 13.5t30 17.5t28.5 25t25.5 28.5t26.5 35.5t26.5 38.5t28.5 45q18 27 29 44q53 81 163 183q66 -37 81 -89q13 -46 -21 -100v0z" />
    <glyph glyph-name="iconnanxie1" unicode="&#xe610;" 
d="M913 397.5q-11 8.5 -25 4.5v0h-1v132q0 14 -11.5 23t-24.5 5q-43 -12 -98 -9q-108 5 -173 73q-8 8 -18.5 8.5t-19.5 -6.5q-90 -70 -143.5 -104t-105.5 -53q-14 -3 -32.5 -9t-51.5 -20.5t-63 -39t-46 -55.5q-34 -60 -7 -134q4 -12 16 -17q-5 -7 -9 -15q-34 -62 -7 -136
q7 -19 27 -19h776q11 0 19.5 8.5t8.5 20.5v319q0 15 -11 23.5zM150 319q10 20 30.5 37t40 27t41.5 18t31 10.5t14 3.5q2 0 3 1q55 20 109 53.5t139 98.5q39 -34 88 -53q49 -18 106 -20q39 -2 78 4v-106q-14 -1 -28 -1q-125 0 -200 76q-8 8 -18.5 8.5t-18.5 -5.5
q-95 -72 -151 -107.5t-111 -54.5q-76 -17 -135 -57h-27q-8 37 9 67zM867 84h-726q-8 37 9 69q11 20 32.5 38t42 28.5t44 19t33 11t14.5 3.5q2 0 3 1q58 20 114.5 54.5t146.5 101.5q88 -76 222 -76q33 0 65 5v-255v0z" />
    <glyph glyph-name="shoushi1" unicode="&#xe67c;" horiz-adv-x="1129" 
d="M1122 512l-161 269q-8 13 -23.5 22t-30.5 9h-677q-15 0 -30.5 -9t-23.5 -22l-161 -269q-5 -9 -9 -16q-2 -3 -3 -5q-6 -11 -1 -20l6 -9h2q5 -6 10 -13l518 -646q5 -6 12 -10l5 -2q7 -3 14 -3t14 3l5 2q6 4 11 10l518 646q11 13 12 31t-7 32zM1085 499h-266l116 253z
M569 761l184 -262h-369zM351 518l-117 256h298zM605 774h298l-117 -256zM764 462l-195 -605l-196 605h391zM203 753l115 -254h-266zM59 462h275l185 -575zM803 462h276l-461 -575z" />
    <glyph glyph-name="nanxie01" unicode="&#xe604;" horiz-adv-x="1026" 
d="M976 522q-4 8 -13 4q-69 -34 -126 -49t-99 -14t-83 15q-1 2 -1 9q0 1 1 12t0 18t-4.5 18.5t-13 21.5t-25.5 19q-38 23 -72 -10l-24 -34q-38 -65 -98.5 -105t-180.5 -85q-97 -37 -147 -60q-79 -38 -86 -77q-6 -30 6 -48q12 -17 42 -24.5t98 -14.5q122 -12 350 -3
q86 3 151 21.5t128 58.5l5 -59q0 -11 10 -11l208 1q8 0 10 8v21.5t2.5 60t9.5 83.5q13 95 -48 223zM196 203q-10 0 -10 11q0 5 3 8t8 3q120 -2 227 18q10 2 12 -9t-9 -12q-116 -22 -231 -19zM480.5 245q-2.5 11 7.5 14q26 7 47 16q10 4 13.5 -6t-5.5 -14q-22 -10 -50 -18
q-10 -3 -12.5 8z" />
    <glyph glyph-name="nanxie" unicode="&#xe612;" 
d="M974 198q-4 8 -13 4q-69 -34 -126 -49t-99 -13.5t-83 15.5q-1 1 -1 8q0 2 1 12.5t0 18t-4.5 18.5t-13 21.5t-25.5 19.5q-38 22 -72 -11l-24 -34q-38 -64 -98.5 -104t-179.5 -85q-98 -37 -147 -61q-79 -37 -86 -76q-6 -30 6 -48q12 -17 42 -25t97 -14q122 -13 350 -4
q86 4 151 22.5t128 58.5l5 -60q0 -10 10 -10l208 1q8 0 10 8v21.5t2.5 60t8.5 82.5q14 95 -47 223zM195 -121q-11 1 -10 12q0 4 3 7.5t7 3.5q120 -2 227 18q10 2 12 -9t-8 -13q-116 -21 -231 -19zM479 -78.5q-3 10.5 7 13.5q26 8 47 17q10 4 14 -6.5t-6 -14.5
q-22 -9 -49 -17q-10 -3 -13 7.5z" />
    <glyph glyph-name="icon004" unicode="&#xe605;" 
d="M423 -61h-333q-14 0 -19 14q-2 6 -4.5 16.5t-0.5 35.5t14 44q24 40 83 49q48 7 101 11q43 4 64 13q29 12 45.5 43.5t45.5 129.5q40 136 85 240q1 3 3 6.5t8.5 12t14 15t20 11.5t26.5 5q12 0 25 -4q7 -2 21 -7q48 -16 73 -16v0q23 0 45 10q88 37 143 62q13 7 30 7
q25 0 41 -19q5 -6 5 -13v-175q1 -29 -12.5 -58.5t-47.5 -36.5q-3 -1 -6 -1q-10 -2 -40 0q-26 1 -40 1q-51 0 -83 -12q-30 -12 -95 -83t-124 -156.5t-69 -128.5q-4 -16 -19 -16zM106 -21h302q18 53 78 139t126.5 157t102.5 85q40 15 98 15q15 0 42 -1q26 -2 32 -1l4 1
q8 2 14 8.5t8.5 13.5t4 16t1.5 12.5v5.5v166q-8 3 -19 -2q-56 -26 -145 -63q-29 -13 -60 -13v0q-31 0 -85 18q-14 5 -20.5 7t-13.5 2q-10 0 -19.5 -7t-12 -11.5t-3.5 -7.5q-49 -118 -84 -236q-30 -102 -51 -141.5t-62 -56.5q-28 -11 -77 -15q-51 -5 -98 -12q-41 -6 -55 -30
q-12 -19 -8 -49v0zM843 -46h-42q-7 0 -13 5t-7 13l-50 378q0 8 6 14t14.5 6t14 -6t5.5 -14v-4l48 -352h7l49 364q2 8 9 13t15 3t12.5 -9t3.5 -15l-2 -8l-50 -370q-1 -8 -6.5 -13t-13.5 -5v0z" />
    <glyph glyph-name="quanbushangpin" unicode="&#xe61d;" 
d="M363 370h-186q-39 0 -66 27t-27 66v186q0 38 27 65.5t66 27.5h186q39 0 66 -27.5t27 -65.5v-186q0 -39 -27 -66t-66 -27zM968 463q0 -39 -27.5 -66t-65.5 -27h-186q-39 0 -66 27t-27 66v186q0 38 27 65.5t66 27.5h186q38 0 65.5 -27.5t27.5 -65.5v-186zM456 -49
q0 -39 -27 -66t-66 -27h-186q-39 0 -66 27t-27 66v186q0 39 27 66t66 27h186q39 0 66 -27t27 -66v-186zM875 -142h-186q-39 0 -66 27.5t-27 65.5v186q0 39 27 66t66 27h186q38 0 65.5 -27t27.5 -66v-186q0 -38 -27.5 -65.5t-65.5 -27.5z" />
    <glyph glyph-name="muyingwanju" unicode="&#xe6db;" 
d="M795 487q-7 7 -17 14q14 22 14 48v31q0 39 -27.5 66t-66.5 27h-107q-7 2 -25 17.5t-32 33.5q-9 11 -25 12q-16 -1 -25 -14q-12 -16 -26.5 -31.5t-20.5 -17.5h-112q-39 0 -66 -27t-27 -66q0 -13 9 -22t22 -9t22 9t9 22t9 22t22 9h112q33 0 74 45q45 -45 79 -45h108
q13 0 22.5 -9t9.5 -22v-31q0 -13 -9.5 -22t-22.5 -9h-373q-1 0 -3 -0.5l-2 -0.5h-23q-41 0 -69 -29t-28 -72v-454q0 -42 29.5 -71t70.5 -29h424v0q41 0 70.5 29.5t29.5 70.5v454q0 42 -29 71v0zM762 -38q0 -16 -11 -27t-27 -11h-424q-15 0 -26.5 11t-11.5 27v454
q0 17 10 27.5t25 10.5h427q16 0 27 -11t11 -27v-454v0zM356 269h94q13 0 22 9t9 22t-9 22t-22 9h-94q-13 0 -22 -9t-9 -22t9 -22t22 -9v0zM512 206h-156q-13 0 -22 -9t-9 -22t9 -22t22 -9h156q13 0 22 9t9 22t-9 22t-22 9v0zM450 82h-94q-13 0 -22 -9t-9 -22t9 -22t22 -9h94
q13 0 22 9t9 22t-9 22t-22 9v0zM450 82z" />
    <glyph glyph-name="nanxie011" unicode="&#xe619;" horiz-adv-x="1026" 
d="M960 492q-4 9 -13 4q-19 -13 -52.5 -37.5t-49.5 -35t-43.5 -26.5t-48.5 -22t-50.5 -9.5t-62.5 -1.5l20 78l1 6q0 2 1 13.5t0 19.5t-4.5 20t-13.5 23.5t-26 20.5q-39 24 -73 -11l-24 -37q-45 -68 -99.5 -110t-165.5 -87q-112 -45 -166 -73q-81 -40 -88 -82q-6 -33 6 -51
q14 -21 40.5 -32t87.5 -18q14 2 186 1t203 -1q43 1 91.5 15.5t81 29.5t90.5 45q1 -25 25 -79q0 -11 10 -11h201q2 0 0 6v5l-2.5 27.5t-3.5 66t6 94.5q0 107 -64 249z" />
    <glyph glyph-name="quanbu1" unicode="&#xe618;" 
d="M231 633q-22 0 -37 -15t-15 -37v-204q0 -21 15 -36t37 -15h204q21 0 36 15t15 36v204q0 22 -15 37t-36 15h-204zM231 274q-22 0 -37 -15t-15 -36v-204q0 -22 15 -37t37 -15h204q21 0 36 15t15 37v204q0 21 -15 36t-36 15h-204zM589 633q-21 0 -36 -15t-15 -37v-204
q0 -21 15 -36t36 -15h204q22 0 37 15t15 36v204q0 22 -15 37t-37 15h-204zM589 274q-21 0 -36 -15t-15 -36v-204q0 -22 15 -37t36 -15h204q22 0 37 15t15 37v204q0 21 -15 36t-37 15h-204z" />
    <glyph glyph-name="quanbu2" unicode="&#xe638;" 
d="M835 289h-281q-13 0 -22 -9t-9 -22v-281q0 -13 9 -22t22 -9h281q13 0 22 9t9 22v281q0 13 -9 22t-22 9zM821 -9h-253v253h253v-253zM466 289h-282q-12 0 -21 -9t-9 -22v-281q0 -13 9 -22t21 -9h282q12 0 21 9t9 22v281q0 13 -9 22t-21 9zM451 -9h-252v253h252v-253z
M835 659h-281q-13 0 -22 -9t-9 -22v-282q0 -12 9 -21t22 -9h281q13 0 22 9t9 21v282q0 13 -9 22t-22 9zM821 361h-253v252h253v-252zM466 659h-282q-12 0 -21 -9t-9 -22v-282q0 -12 9 -21t21 -9h282q12 0 21 9t9 21v282q0 13 -9 22t-21 9zM451 361h-252v252h252v-252z" />
    <glyph glyph-name="dfdf05" unicode="&#xe643;" 
d="M905 97q-1 29 -8 67q-8 49 -20 69q-3 11 -6 47q-2 25 -4 82q-2 40 -3 54q-1 11 -2 18q-4 25 -23 31q-6 2 -16 2h-23q-32 -1 -50 -1q-34 0 -54 2q-29 4 -49 21q-13 10 -38.5 19.5t-44.5 9.5q-13 0 -24 -6q-18 -10 -23 -56q-2 -18 -5 -65q-4 -73 -8 -83q-14 -31 -49 -59
q-24 -20 -97 -47q-66 -25 -89 -27q-17 -2 -42 -2h-26q-14 1 -20 1q-22 0 -32 -3q-29 -10 -39 -48l-1 -1v-2l-3 -18l-5 -12v-1v-1q-14 -43 0 -65q7 -11 18 -16q57 -29 212 -41q96 -7 210 -7h28q16 -2 43 -2q66 0 169 9q41 4 70 7q14 2 22 4q6 1 9 2q18 5 23 21q4 11 0 97z
M474 225q41 33 59 71q4 10 7 56.5t6.5 88t8.5 44.5q4 2 9 2q14 0 34.5 -7.5t28.5 -14.5q27 -22 65 -27q22 -3 58 -3q18 0 43 1t30 1t6 -1q3 -1 5.5 -48.5t6 -101.5t9.5 -66q-128 -10 -243 -63q-61 -28 -117 -12l-34 68q11 6 18 12zM139 115q6 22 19 26q5 2 23 2q6 0 21 -0.5
t25 -0.5q26 0 44.5 2t68 19t89.5 36l39 -78l5 -3q23 -9 58 -9q45 0 89 20q115 53 241 61q9 -37 12 -83q-25 2 -62 2h-57q-37 -1 -86 -17q-27 -10 -46 -15t-64.5 -10.5t-104.5 -4.5q-92 0 -172 11t-104 17.5t-36 11.5q-2 0 -4 1zM876 9q-1 -2 -47 -7t-110 -9.5t-107 -4.5
q-27 0 -41 2h-30q-325 0 -410 45l-2.5 2.5t-4 10.5t3.5 26q1 -1 2 -1q14 -5 38.5 -12t107 -18t177.5 -12h9q58 0 104 5.5t65 11t48 15.5q44 15 75 15h57q36 0 64 -2q2 -62 1 -67zM611 373zM580 373q0 13 9 22t22 9t22.5 -9t9.5 -22t-9.5 -22.5t-22.5 -9.5t-22 9.5t-9 22.5z
M587 268zM555 268q0 13 9.5 22t22.5 9t22.5 -9t9.5 -22t-9.5 -22.5t-22.5 -9.5t-22.5 9.5t-9.5 22.5z" />
    <glyph glyph-name="klmquanbushangpin" unicode="&#xe62b;" 
d="M78 750q-7 0 -12 -5t-5 -11v-336q0 -7 5 -11.5t12 -4.5h335q7 0 12 4.5t5 11.5v336q0 6 -5 11t-12 5h-335zM611 750q-7 0 -12 -5t-5 -11v-336q0 -7 5 -11.5t12 -4.5h335q7 0 12 4.5t5 11.5v336q0 6 -5 11t-12 5h-335zM611 790h335q23 0 39.5 -16.5t16.5 -39.5v-336
q0 -23 -16.5 -39.5t-39.5 -16.5h-335q-24 0 -40.5 16.5t-16.5 39.5v336q0 23 16.5 39.5t40.5 16.5zM78 218q-7 0 -12 -4.5t-5 -11.5v-336q0 -6 5 -11t12 -5h335q7 0 12 5t5 11v336q0 7 -5 11.5t-12 4.5h-335zM78 258h335q24 0 40.5 -16.5t16.5 -39.5v-336q0 -23 -16.5 -39.5
t-40.5 -16.5h-335q-23 0 -39.5 16.5t-16.5 39.5v336q0 23 16.5 39.5t39.5 16.5zM611 258h335q23 0 39.5 -16.5t16.5 -39.5v-336q0 -23 -16.5 -39.5t-39.5 -16.5h-335q-24 0 -40.5 16.5t-16.5 39.5v336q0 23 16.5 39.5t40.5 16.5zM78 790h335q24 0 40.5 -16.5t16.5 -39.5
v-336q0 -23 -16.5 -39.5t-40.5 -16.5h-335q-23 0 -39.5 16.5t-16.5 39.5v336q0 23 16.5 39.5t39.5 16.5z" />
    <glyph glyph-name="401" unicode="&#xe627;" 
d="M928 557q-14 47 -43 77q-43 43 -105 43v0q-21 0 -37 -4q-5 -2 -9 -4q-30 -14 -59 -38t-51 -48t-51.5 -67.5t-47 -72t-51.5 -86.5q-18 -31 -44 -41q-20 -8 -77 -12q-83 -6 -132 -22q-106 -36 -130 -99q-14 -34 -2 -67l20 -77q7 -26 30 -39q34 -18 150 -29q97 -9 172 -9
q41 0 59 4q29 8 50 37.5t63 110.5q57 107 83 141q3 -92 4 -228q0 -25 18 -42.5t43 -17.5h16q25 0 42.5 16.5t18.5 41.5q7 141 13 234q2 33 17.5 72.5t25 55.5t15.5 24q11 15 11 34q2 65 -12 112zM879 446q-7 -10 -18 -27t-30 -65.5t-22 -90.5q-12 -200 -12 -235h-16
q-2 302 -10 309q-9 10 -25 10q-24 0 -55 -27q-28 -26 -68.5 -98.5t-72.5 -132t-46 -63.5q-9 -3 -43 -3q-73 0 -171.5 9.5t-120.5 21.5l-21 82q-1 1 -2.5 4.5t0.5 14t10 20.5t29.5 23.5t54.5 24.5q31 11 68.5 15.5t65.5 6t56.5 7.5t53 24t43.5 50q32 54 48.5 81.5t43.5 67.5
t46.5 62t44.5 43.5t50 33.5q8 2 20 2q16 0 31 -6t32.5 -22t27 -52.5t8.5 -89.5zM515 148q-6 0 -11 -3q-12 -4 -37 -6q-107 -11 -252 9q-9 2 -15.5 -3.5t-8 -13.5t4 -15t13.5 -8q94 -13 188 -13q41 0 74 3q34 3 49 9v0q15 4 15 20q0 9 -6 15t-14 6z" />
    <glyph glyph-name="501" unicode="&#xe628;" 
d="M805 666h-225q-37 0 -64.5 -24.5t-31.5 -60.5q-6 -62 -17 -130q-15 -93 -29 -135q-26 -1 -54 -1q-15 0 -41 1h-32q-81 0 -118 -16q-50 -21 -86 -85q-20 -36 -16 -96q1 -26 6 -47q7 -34 35 -56t62 -22h611q38 0 65 27t27 65v488q0 38 -27 65t-65 27zM836 86q0 -13 -9 -22
t-22 -9h-611q-12 0 -23 9t-14 21q-15 67 4 100q26 46 54 57.5t96 11.5h34h39q45 0 85 1q19 1 38 82.5t28.5 155t9.5 81.5q2 13 12 22t23 9h225q13 0 22 -9t9 -22v-488zM689 564q-34 0 -57.5 -24t-23.5 -57.5t23.5 -57.5t57.5 -24t57.5 24t23.5 57.5t-23.5 57.5t-57.5 24z
M689 452q-12 0 -21 9t-9 21.5t9 21.5t21 9t21 -9t9 -21.5t-9 -21.5t-21 -9z" />
    <glyph glyph-name="nvzhuang" unicode="&#xe62c;" 
d="M839 46q-6 45 -35 103q-24 51 -59 93q-44 53 -102 90q-11 10 -18 25q-6 11 -7 24v0v0v1q-3 21 8 44q24 55 41 110t16 77l-1 15l-102 26l-16 4l-7 -16q-8 -17 -22.5 -34.5t-28.5 -17.5h-1q-25 0 -55 54l-8 15l-117 -35l1 -16q2 -70 37 -145q27 -58 28 -85q2 -34 -33 -71
q-12 -13 -43 -39q-56 -47 -80 -82q-41 -58 -51 -141v-1v-1q0 -19 17 -35q37 -34 137 -24q22 2 48 -11q53 -28 126 -28q64 0 115 43q43 19 122 -7q34 -11 59 5q27 17 32 55v2zM368 594l55 16q39 -63 84 -61t79 61l55 -14q-12 -63 -52 -153q-10 -22 -12 -43
q-35 -27 -77.5 -26.5t-69.5 28.5q-6 27 -30 79q-25 53 -32 113zM786 20q-9 -5 -25 0q-63 21 -114 15q-27 -3 -42 -12l-2 -1l-2 -2l-12 -9t-31 -15.5t-46 -9.5q-63 0 -107 23q-32 16 -58 16h-13q-67 -7 -96 8q-10 4 -13 10q5 38 16 68t29.5 54t32 37t38.5 35q33 27 47 42
q34 36 42 72q32 -19 71 -19q3 0 6 1q40 1 75 21q2 -8 6 -15q12 -25 30 -39l1 -1h1q53 -34 92 -82q33 -39 55 -84q23 -48 31 -90q-3 -17 -12 -23z" />
    <glyph glyph-name="shouji" unicode="&#xe63c;" 
d="M446 12h133v-41h-133v41zM720 673h-419q-13 0 -22 -9.5t-9 -23.5v-696q0 -14 9 -23.5t22 -9.5h419q13 0 22.5 9.5t9.5 23.5v696q0 14 -9.5 23.5t-22.5 9.5zM711 632v-51h-400v51h400zM311 540h400v-459h-400v459zM311 -48v88h400v-88h-400z" />
    <glyph glyph-name="yundong1" unicode="&#xe671;" 
d="M808.5 573.5q-59.5 59.5 -136.5 91.5t-161 32t-160.5 -32t-136 -91.5t-91.5 -136t-32 -160.5t32 -160.5t91.5 -136t136 -91.5t160.5 -32t161 32t136.5 91.5t91 136t31.5 160.5t-31.5 160.5t-91 136zM876 277v3.5v3.5q-137 -3 -240 -93l-87 87l238 238q89 -103 89 -239z
M636 114l113 -114q-82 -71 -190 -85q4 113 77 199zM510 317l-84 84q89 103 92 241q131 -2 230 -87zM484 641q-12 -1 -21 -2q11 1 21 2zM463 639q-4 -113 -76 -199l-114 114q-13 -12 -20 -19q87 88 210 104zM235 515l113 -114q-85 -72 -198 -76q14 108 85 190zM146 277v-3.5
v-3.5q138 3 241 93l85 -85l-238 -238q11 -14 19 -21q-52 52 -79.5 118.5t-27.5 139.5zM150 325q-1 -8 -3 -20q1 9 3 20zM272 1l238 238l87 -86q-89 -103 -92 -241h3h3q-136 0 -239 89v0zM559 -85q-11 -1 -20 -2q11 1 20 2zM788 39l-114 114q86 72 199 76q-14 -108 -85 -190
v0zM875 249q-1 -8 -2 -20q1 9 2 20z" />
    <glyph glyph-name="leimutubiaozhubaoshoulian" unicode="&#xe61b;" horiz-adv-x="1131" 
d="M1130 446v0.5v0.5q0 8 -5 17v0.5v1.5l-221 331q-10 15 -28 15h-632q-18 0 -28 -15l-211 -332v-0.5v-1.5q-5 -8 -5 -16v-0.5v-0.5q0 -1 0.5 -1.5t0.5 -1.5q1 -8 6 -15v-1t1 -1l516 -626q1 -1 2.5 -2t2.5 -1l4 -4q7 -4 15 -5h0.5h0.5h1v0q8 0 16 5q1 0 4 3q1 0 2.5 1.5
t2.5 1.5l547 626v1t1 1q5 7 6 16q0 1 0.5 1.5t0.5 1.5zM291 414l157 -417l-344 417h187zM616 745l152 -264h-399l136 264h111zM775 414l-223 -504l-189 504h412zM848 414h175l-354 -406zM1034 481h-189l-152 264h165zM262 745h168l-136 -264h-200z" />
    <glyph glyph-name="leimuyongpinjingpinxiebao2" unicode="&#xe61c;" horiz-adv-x="1251" 
d="M1036 -212q-13 0 -22 9t-10 21q-15 310 62 465q12 23 45 69q9 13 14 20t13.5 20t13.5 21t11.5 21t10 23t7 23.5t5 26t1.5 27t-3 29.5q-15 104 -102 176q-278 -251 -485 -458q-56 -56 -104 -96.5t-91 -66.5t-67 -38t-64 -30q-72 -30 -113 -57q-90 -59 -94 -141h469
q18 3 70 122q35 80 57 116q18 31 46 58.5t53 44.5t52.5 31t39 18.5t18.5 6.5q13 4 24.5 -2t15.5 -18.5t-1.5 -24t-18.5 -15.5q-6 -2 -14 -5.5t-32.5 -15.5t-45 -26t-44.5 -36.5t-39 -47.5q-19 -32 -53 -110q-15 -35 -23 -52t-21.5 -42t-24.5 -36.5t-26.5 -20.5t-32.5 -9
h-499q-11 0 -19.5 7t-11.5 18q-2 6 -3 16.5t2 39t13 55t38 60.5t70 62q46 30 123 63q39 16 61.5 27.5t62.5 36t84.5 62.5t97.5 91q101 101 231.5 224t192.5 179t83 75q17 16 38 3q6 -4 15.5 -10.5t32.5 -28.5t41.5 -47t36.5 -65.5t24 -83.5q3 -19 3 -37.5t-1.5 -34.5t-6 -33
t-8.5 -29.5t-12 -28t-13.5 -25.5t-15.5 -25l-15 -22.5t-16 -21.5q-30 -42 -39 -60q-70 -141 -56 -434q1 -13 -8 -22.5t-22 -10.5h-1z" />
    <glyph glyph-name="icon" unicode="&#xe63d;" 
d="M295 46v37h145v-37h-145zM295 300h145v-36h-145v36zM512 155h-217v36h217v-36zM739 435q4 -2 16 -11l-25 -26q-18 11 -37 11h-18h-326h-18q-30 0 -51.5 -21.5t-21.5 -51.5v-362q0 -30 21.5 -51.5t51.5 -21.5h362q30 0 51.5 21.5t21.5 51.5v362q0 3 -1 10l29 29
q8 -21 8 -39v-362q0 -45 -32 -77t-77 -32h-362q-45 0 -77 32t-32 77v362q0 33 17.5 59.5t45.5 39.5q-27 26 -27 64t26.5 64.5t64.5 26.5h127l-36 -36h-91q-23 0 -38.5 -16t-15.5 -38.5t15.5 -38.5t38.5 -16h326q23 0 38.5 16t15.5 38.5t-15.5 38.5t-38.5 16h-91l-36 36h127
q38 0 64.5 -26.5t26.5 -64.5t-27 -64zM548 662q0 15 -10.5 26t-25.5 11t-25.5 -11t-10.5 -26v-72h-36v72q0 30 21 51.5t51 21.5t51 -21.5t21 -51.5v-72h-36v72z" />
    <glyph glyph-name="allprd-copy" unicode="&#xe606;" 
d="M745 -38v378h132q23 0 40 -16.5t17 -40.5v-264q0 -23 -17 -40t-40 -17h-132v0zM745 428v55h132q1 0 1 1v0v1v264v0.5t-1 0.5h-132v56h132q23 0 40 -17t17 -40v-264q0 -24 -17 -40.5t-40 -16.5h-132zM279 806h132q24 0 40.5 -17t16.5 -40v-264q0 -24 -16.5 -40.5
t-40.5 -16.5h-132v55h132q1 0 1 1v0q1 0 1 1v264q0 1 -0.5 1h-1.5h-132v56zM745 806v-56h-132h-1.5t-0.5 -1v-264q0 -1 1 -1v0q0 -1 1 -1h132v-55h-132q-24 0 -40.5 16.5t-16.5 40.5v264q0 23 16.5 40t40.5 17h132zM745 340v-378h-132q-24 0 -40.5 17t-16.5 40v264
q0 24 16.5 40.5t40.5 16.5h132zM279 -38v56h132h1v0q1 0 1 1v264q0 1 -1 1v0q0 1 -1 1h-132v55h132q24 0 40.5 -16.5t16.5 -40.5v-264q0 -23 -16.5 -40t-40.5 -17h-132v0zM147 806h132v-56h-132q-1 0 -1 -0.5v-0.5v-264v-1v0q0 -1 1 -1h132v-55h-132q-23 0 -40 16.5
t-17 40.5v264q0 23 17 40t40 17v0zM279 340v-55h-132q-1 0 -1 -1v0v-1v-264v-1v0h1h132v-56h-132q-23 0 -40 17t-17 40v264q0 24 17 40.5t40 16.5h132z" />
    <glyph glyph-name="shouji1" unicode="&#xe670;" 
d="M295 711h434v-15h-434v15zM702 782q9 0 14.5 -6t5.5 -15v-693q0 -8 -5.5 -14t-14.5 -6h-380q-9 0 -14.5 6t-5.5 14v693q0 9 5.5 15t14.5 6h380zM702 796h-380q-15 0 -25 -10t-10 -25v-693q0 -14 10 -24.5t25 -10.5h380q15 0 25 10.5t10 24.5v693q0 15 -10 25t-25 10v0z
M295 228h434v-15h-434v15zM432 134h160v-14h-160v14z" />
    <glyph glyph-name="shouji2" unicode="&#xe62e;" 
d="M301 711h421v-15h-421v15zM702 782q9 0 14.5 -6t5.5 -15v-693q0 -8 -5.5 -14t-14.5 -6h-380q-9 0 -14.5 6t-5.5 14v693q0 9 5.5 15t14.5 6h380zM702 796h-380q-15 0 -25 -10t-10 -25v-693q0 -14 10 -24.5t25 -10.5h380q15 0 25 10.5t10 24.5v693q0 15 -10 25t-25 10v0z
M302 228h420v-15h-420v15zM432 134h160v-14h-160v14z" />
    <glyph glyph-name="phone" unicode="&#xe69e;" 
d="M732 831h-444q-20 0 -39.5 -13.5t-19.5 -31.5v-804q0 -18 19.5 -31.5t39.5 -13.5h444q20 0 41.5 13.5t21.5 31.5v804q0 18 -21.5 31.5t-41.5 13.5zM747 -5q0 -5 -3.5 -8.5t-8.5 -3.5h-448q-5 0 -8.5 3.5t-3.5 8.5v132h472v-132zM747 172h-472v473h472v-473zM747 690h-472
v73q0 6 4 15t8 9h448q5 0 8.5 -3.5t3.5 -8.5v-85zM557 80h-94v-46h94v46z" />
    <glyph glyph-name="lanqiu" unicode="&#xe60f;" 
d="M829 701q-86 86 -201.5 116.5t-231 0t-201.5 -116.5t-116.5 -201.5t0 -230.5t116.5 -201q65 -65 148.5 -98.5t168.5 -33.5t168.5 33.5t148.5 98.5q86 86 116.5 201t0 230.5t-116.5 201.5zM903 361q-68 7 -133 -12.5t-118 -64.5l-100 100l256 256q51 -58 75 -130.5
t20 -148.5zM652 205l116 -117q-78 -67 -178 -88q-11 115 62 205zM691 244q90 73 205 62q-20 -100 -88 -178zM768 680l-256 -256l-100 100q45 53 64.5 118.5t12.5 132.5q76 4 148 -20t131 -75zM333 524q-90 -73 -205 -62q20 100 88 178zM256 680q78 68 178 88
q11 -115 -62 -205zM121 407q68 -7 133 12.5t118 64.5l100 -100l-256 -256q-51 59 -75 131t-20 148zM256 88l256 257l100 -101q-45 -53 -64.5 -118t-12.5 -133q-76 -4 -148 20t-131 75z" />
    <glyph glyph-name="quanbu3" unicode="&#xe601;" 
d="M512 832q-91 0 -174 -35.5t-143 -95t-95 -142.5t-35 -173.5t35 -173.5t95 -142.5t143 -95t174 -35.5t173.5 35.5t142.5 95t95.5 142.5t35.5 173.5t-35.5 173.5t-95.5 142.5t-142.5 95t-173.5 35.5zM511.5 -20q-110.5 0 -204 54t-148 147.5t-54.5 204t54.5 204t148 147.5
t204 54t204 -54t148 -147.5t54.5 -204t-54.5 -204t-148 -147.5t-204 -54zM324 400h131q16 0 27.5 11.5t11.5 27.5v133q0 16 -11.5 27.5t-27.5 11.5h-131q-16 0 -27 -11.5t-11 -27.5v-133q0 -16 11 -27.5t27 -11.5zM324 572h131v-134h-131v134zM576 400h131q16 0 27 11.5
t11 27.5v133q0 16 -11 27.5t-27 11.5h-131q-16 0 -27.5 -11.5t-11.5 -27.5v-133q0 -16 11.5 -27.5t27.5 -11.5zM576 572h131v-134h-131v134zM459 362h-131q-16 0 -27.5 -11t-11.5 -27v-134q0 -16 11.5 -27t27.5 -11h131q16 0 27 11t11 27v134q0 16 -11 27t-27 11zM459 189
h-131v134h131v-134zM711 362h-132q-16 0 -27 -11t-11 -27v-134q0 -16 11 -27t27 -11h132q15 0 26.5 11t11.5 27v134q0 16 -11.5 27t-26.5 11zM711 189h-132v134h132v-134z" />
    <glyph glyph-name="gaogenxie1" unicode="&#xe613;" 
d="M925 190q-31 27 -94 63q-3 2 -26.5 16t-34 19t-29 10t-33.5 3q-4 0 -9 -2q-3 -1 -6 -3q-23 -13 -46 -16.5t-40.5 -1t-38 16.5t-33.5 25t-31 34.5t-26.5 36t-26 39t-22.5 34.5q-68 103 -129 181q-2 3 -14 19t-17 22t-17 19.5t-20 20.5t-19.5 14.5t-23.5 11.5
q-33 12 -84 -51q-65 -80 -49 -204q4 -27 20.5 -75.5t19.5 -62.5q32 -127 36 -315q0 -12 8 -20.5t20 -8.5h45.5h45.5q11 0 18.5 8.5t7.5 20.5v299q8 -4 15.5 -9.5t14.5 -13t10.5 -12t11 -13.5t9.5 -12q23 -27 60 -95.5t65 -98.5q25 -28 57.5 -45t65 -22.5t69.5 -7t72 0.5
q4 0 24 1t29 1.5t29.5 1.5t32 3.5t29.5 5.5t30 8.5t25 12t22.5 15.5t15.5 21q26 47 -39 105v0zM895 99q-16 -8 -36 -13.5t-35 -8t-42 -4t-37 -2t-41.5 0t-35.5 0.5q-30 0 -53 1q-47 2 -86.5 34t-63.5 78q-22 42 -36 67t-38.5 58.5t-50.5 57.5q-44 40 -81 45q-15 2 -27 -5.5
t-12 -22.5v-312h-18h-15q-2 114 -13.5 203t-43.5 165q-25 54 -20.5 119t44.5 110q11 13 24 23q7 -4 23 -21q23 -22 46 -49.5t39 -48.5t40.5 -57t35.5 -52.5t37.5 -59t34.5 -53.5q33 -51 77 -84.5t98.5 -44t109.5 21.5q7 0 18.5 -5.5t25.5 -14t16 -9.5q24 -13 53 -30
q42 -26 67 -51q15 -15 14.5 -21t-18.5 -15v0zM895 99z" />
    <glyph glyph-name="iconfont" unicode="&#xe63a;" 
d="M62 843q-6 0 -11 -4.5t-5 -11.5v-332q0 -7 5 -12t11 -5h333q6 0 11 5t5 12v332q0 7 -5 11.5t-11 4.5h-333zM629 843q-6 0 -11 -4.5t-5 -11.5v-332q0 -7 5 -12t11 -5h333q6 0 11 5t5 12v332q0 7 -5 11.5t-11 4.5h-333zM629 883h333q23 0 39 -16.5t16 -39.5v-332
q0 -23 -16 -39.5t-39 -16.5h-333q-23 0 -39 16.5t-16 39.5v332q0 23 16 39.5t39 16.5zM62 276q-6 0 -11 -4.5t-5 -11.5v-332q0 -7 5 -12t11 -5h333q6 0 11 5t5 12v332q0 7 -5 11.5t-11 4.5h-333zM62 316h333q23 0 39 -16.5t16 -39.5v-332q0 -23 -16 -39.5t-39 -16.5h-333
q-23 0 -39 16.5t-16 39.5v332q0 23 16 39.5t39 16.5zM629 316h333q23 0 39 -16.5t16 -39.5v-332q0 -23 -16 -39.5t-39 -16.5h-333q-23 0 -39 16.5t-16 39.5v332q0 23 16 39.5t39 16.5zM62 883h333q23 0 39 -16.5t16 -39.5v-332q0 -23 -16 -39.5t-39 -16.5h-333
q-23 0 -39 16.5t-16 39.5v332q0 23 16 39.5t39 16.5z" />
    <glyph glyph-name="muying3" unicode="&#xe678;" 
d="M193 486v-456q0 -29 21 -50t50 -21h496q31 1 47 13.5t24 36.5v0v477q0 27 -17.5 46.5t-42.5 23.5q22 29 22 65v7q0 44 -31 75.5t-76 31.5h-112q-4 0 -4 3v45q0 26 -18 44.5t-44 18.5t-44 -18.5t-18 -44.5v-45q0 -3 -3 -3h-114q-44 0 -75 -31.5t-31 -75.5v-7q0 -38 23 -67
q-23 -6 -38 -24.5t-15 -43.5v0v0zM321 701h122q35 0 35 37v45q0 9 11 19.5t19 10.5t18.5 -10.5t10.5 -19.5v-45q0 -37 37 -37h123q26 0 45.5 -23t19.5 -50v-7q0 -26 -18 -44.5t-43 -19.5h-383q-26 1 -43.5 19.5t-17.5 44.5v7q0 27 23 50t49 23h-8v0zM330 525h356h2h2h80
q11 0 19.5 -13t8.5 -26v-456q0 -13 -8.5 -26t-19.5 -13h-506q-12 0 -25 13.5t-13 25.5v456q0 12 13 25.5t25 13.5h62h2h2v0v0zM284 388h137q7 0 11.5 4.5t4.5 11t-4.5 11t-11.5 4.5h-137q-7 0 -11.5 -4.5t-4.5 -11t4.5 -11t11.5 -4.5v0v0zM284 204h137q7 0 11.5 5t4.5 11.5
t-4.5 11t-11.5 4.5h-137q-7 0 -11.5 -4.5t-4.5 -11t4.5 -11.5t11.5 -5v0v0zM284 296h232q6 0 11 4.5t5 11t-5 11.5t-11 5h-232q-7 0 -11.5 -5t-4.5 -11.5t4.5 -11t11.5 -4.5v0v0zM284 296z" />
    <glyph glyph-name="quanbu4" unicode="&#xe69d;" 
d="M8 811v-146h1008v146h-1008zM8 -16h1008v146h-1008v-146zM8 324h1008v146h-1008v-146z" />
    <glyph glyph-name="icon1" unicode="&#xe669;" 
d="M502 485zM161 484zM713 570zM116 794q-6 0 -10.5 -4.5t-4.5 -10.5v-306q0 -6 4.5 -10.5t10.5 -4.5h306q6 0 10.5 4.5t4.5 10.5v306q0 6 -4.5 10.5t-10.5 4.5h-306v0zM602 794q-6 0 -10.5 -4.5t-4.5 -10.5v-306q0 -6 4.5 -10.5t10.5 -4.5h306q6 0 10.5 4.5t4.5 10.5v306
q0 6 -4.5 10.5t-10.5 4.5h-306v0zM602 830h306q21 0 36 -15t15 -36v-306q0 -21 -15 -36t-36 -15h-306q-21 0 -36 15t-15 36v306q0 21 15 36t36 15v0zM116 309q-6 0 -10.5 -4.5t-4.5 -10.5v-306q0 -6 4.5 -10.5t10.5 -4.5h306q6 0 10.5 4.5t4.5 10.5v306q0 6 -4.5 10.5
t-10.5 4.5h-306v0zM116 345h306q21 0 36 -15t15 -36v-306q0 -21 -15 -36t-36 -15h-306q-21 0 -36 15t-15 36v306q0 21 15 36t36 15v0zM602 345h306q21 0 36 -15t15 -36v-306q0 -21 -15 -36t-36 -15h-306q-21 0 -36 15t-15 36v306q0 21 15 36t36 15v0zM116 830h306
q21 0 36 -15t15 -36v-306q0 -21 -15 -36t-36 -15h-306q-21 0 -36 15t-15 36v306q0 21 15 36t36 15v0zM116 830z" />
    <glyph glyph-name="icon2" unicode="&#xe66a;" 
d="M502 485zM161 484zM713 570zM116 348h306q21 0 36 -15.5t15 -36.5v-306q0 -21 -15 -36t-36 -15h-306q-21 0 -36 15t-15 36v306q0 21 15 36.5t36 15.5v0zM602 348h306q21 0 36 -15.5t15 -36.5v-306q0 -21 -15 -36t-36 -15h-306q-21 0 -36 15t-15 36v306q0 21 15 36.5
t36 15.5v0zM116 832h306q21 0 36 -15t15 -36v-306q0 -21 -15 -36t-36 -15h-306q-21 0 -36 15t-15 36v306q0 21 15 36t36 15v0zM116 830zM602 832h306q21 0 36 -15t15 -36v-306q0 -21 -15 -36t-36 -15h-306q-21 0 -36 15t-15 36v306q0 21 15 36t36 15v0z" />
    <glyph glyph-name="quanbu5" unicode="&#xe665;" 
d="M453 506q0 -34 -24 -58.5t-59 -24.5h-222q-34 0 -58.5 24.5t-24.5 58.5v222q0 34 24.5 58.5t58.5 24.5h222q35 0 59 -24.5t24 -58.5v-222v0zM453 506zM943 506q0 -34 -24 -58.5t-58 -24.5h-223q-34 0 -58 24.5t-24 58.5v222q0 34 24 58.5t58 24.5h223q34 0 58 -24.5
t24 -58.5v-222v0zM943 506zM453 32q0 -34 -24 -58.5t-59 -24.5h-222q-34 0 -58.5 24.5t-24.5 58.5v222q0 34 24.5 58.5t58.5 24.5h222q35 0 59 -24.5t24 -58.5v-222v0zM453 32zM943 32q0 -34 -24 -58.5t-58 -24.5h-223q-34 0 -58 24.5t-24 58.5v222q0 34 24 58.5t58 24.5
h223q34 0 58 -24.5t24 -58.5v-222v0zM943 32z" />
    <glyph glyph-name="quanbu6" unicode="&#xe75a;" 
d="M98 832h1h357q14 0 24.5 -10t10.5 -24v-1v-358q0 -14 -10.5 -24t-24.5 -10h-1h-357q-14 0 -24 10t-10 24v1v358q0 14 10 24t24 10v0zM422 763v0h-289v-289h289v289v0zM890 763v0h-289v-289h289v289v0zM567 832v0h357h1q14 0 24 -10t10 -24v-358v-1q0 -14 -10 -24t-24 -10
h-357h-1q-14 0 -24.5 10t-10.5 24v358v1q0 14 10.5 24t24.5 10v0zM133 5v0h289v289h-289v-289v0zM456 -64v0h-357h-1q-14 0 -24 10.5t-10 24.5v357v1q0 14 10 24t24 10h357h1q14 0 24.5 -10t10.5 -24v-357v-1q0 -14 -10.5 -24.5t-24.5 -10.5v0zM925 -64v0h-1h-357
q-14 0 -24.5 10.5t-10.5 24.5v1v357q0 14 10.5 24t24.5 10h1h357q14 0 24 -10t10 -24v-1v-357q0 -14 -10 -24.5t-24 -10.5v0zM601 5v0h289v289h-289v-289v0z" />
    <glyph glyph-name="quanbu7" unicode="&#xe640;" horiz-adv-x="1047" 
d="M470 509q0 -34 -24.5 -58.5t-58.5 -24.5h-295q-35 0 -59 24.5t-24 58.5v295q0 35 24 59t59 24h295q34 0 58.5 -24t24.5 -59v-295zM470 -36q0 -34 -24.5 -58.5t-58.5 -24.5h-295q-35 0 -59 24.5t-24 58.5v296q0 34 24 58.5t59 24.5h295q34 0 58.5 -24.5t24.5 -58.5v-296z
M1038 509q0 -34 -24.5 -58.5t-58.5 -24.5h-295q-35 0 -59 24.5t-24 58.5v295q0 35 24 59t59 24h295q34 0 58.5 -24t24.5 -59v-295zM1038 -36q0 -34 -24.5 -58.5t-58.5 -24.5h-295q-35 0 -59 24.5t-24 58.5v296q0 34 24 58.5t59 24.5h295q34 0 58.5 -24.5t24.5 -58.5v-296z
" />
    <glyph glyph-name="gaogenxie2" unicode="&#xe631;" horiz-adv-x="1028" 
d="M902 800q-493 -589 -556 -666q-23 -27 -40.5 -38t-29 -10.5t-35 -2.5t-49.5 -13q-37 -17 -84.5 -50.5t-78 -58.5t-29.5 -25h390q19 0 35 2.5t27.5 7t21 10.5t15.5 12t10.5 12.5t6.5 12.5l3.5 10.5t2.5 6.5v3q1 7 4 18.5t16 47t29.5 69t48 76.5t69 77t83.5 58.5t85 35
t72.5 16t53.5 5.5h19q24 65 31.5 121.5t1 94.5t-19.5 69t-31 49t-34 30t-27 16zM800 346q16 -13 28.5 -62t19 -106t10.5 -119.5t5 -95t1 -40.5h70q-3 53 -0.5 110.5t9 119t13 109t12 79t5.5 30.5q-20 11 -45 12.5t-46.5 -4.5t-40.5 -13.5t-30 -13.5zM51 -128h346l38 26h-416
z" />
    <glyph glyph-name="yanzhengma" unicode="&#xe676;" 
d="M747 856q40 0 68.5 -28.5t28.5 -68.5v-749q0 -41 -28.5 -69.5t-68.5 -28.5h-470q-40 0 -68.5 28.5t-28.5 69.5v749q0 40 28.5 68.5t68.5 28.5h470v0zM747 896h-470q-57 0 -97 -40t-40 -97v-750q0 -57 40 -97t97 -40h470q57 0 97 40t40 97v750q0 57 -40 97t-97 40v0z
M306 322q-26 0 -44 18t-18 44t18 44t44 18t44 -18t18 -44t-18 -44t-44 -18v0zM512 322q-26 0 -44 18t-18 44t18 44t44 18t44 -18t18 -44t-18 -44t-44 -18v0zM718 322q-26 0 -44 18t-18 44t18 44t44 18t44 -18t18 -44t-18 -44t-44 -18v0zM718 322z" />
    <glyph glyph-name="nvxie" unicode="&#xe677;" 
d="M429 -20q-88 0 -203.5 12t-145.5 28q-10 5 -12 16q-6 16 -4 42.5t9 52.5t28.5 53t54.5 44v0q70 37 146 43q22 2 33 4.5t28 13.5t38 34q25 28 85 95q71 80 112.5 125.5t104 109t103.5 96.5q9 7 21 5q18 -3 37.5 -13t40 -29.5t33.5 -47.5t19.5 -67.5t-2.5 -90.5
q-11 -62 -37 -130q-19 -52 -23 -87q-12 -115 -7 -276q1 -10 -6.5 -17.5t-17.5 -7.5l-89 -2q-11 0 -19 7q-7 7 -7 18v350q0 -1 -4.5 -3.5t-11.5 -7.5t-13 -10q-18 -16 -43.5 -54.5t-41 -68t-43.5 -82.5q-44 -85 -64.5 -115.5t-39.5 -35.5q-14 -4 -59 -4zM115 60
q47 -15 187 -24.5t172 -3.5q14 11 74 127q29 56 46 87.5t44 72t49 59.5q47 41 80 35q21 -4 29 -21q3 -5 3 -11v-345l39 1q-4 154 7 258q4 41 26 98q25 64 34 121q4 35 4 61t-7.5 47t-15.5 34t-20.5 23t-21 15t-16.5 8q-40 -33 -99.5 -94t-98.5 -104t-106 -119
q-61 -68 -86 -95q-27 -30 -52 -45t-39.5 -18.5t-40.5 -5.5q-66 -5 -127 -37v0q-23 -12 -38 -30t-19.5 -35t-6.5 -33.5t0 -25.5z" />
    <glyph glyph-name="icon3" unicode="&#xe600;" 
d="M412 768h-227q-23 0 -40 -16.5t-17 -40.5v-226q0 -24 17 -40.5t40 -16.5h227q23 0 39.5 16.5t16.5 40.5v226q0 24 -16.5 40.5t-39.5 16.5zM839 768h-227q-23 0 -39.5 -16.5t-16.5 -40.5v-226q0 -24 16.5 -40.5t39.5 -16.5h227q23 0 39.5 16.5t16.5 40.5v226
q0 24 -16.5 40.5t-39.5 16.5zM412 341h-227q-23 0 -40 -16.5t-17 -40.5v-226q0 -24 17 -40.5t40 -16.5h227q23 0 39.5 16.5t16.5 40.5v226q0 24 -16.5 40.5t-39.5 16.5zM839 341h-227q-23 0 -40 -16.5t-17 -40.5v-226q0 -24 17 -40.5t40 -16.5h227q23 0 39.5 16.5t16.5 40.5
v226q0 24 -16.5 40.5t-39.5 16.5z" />
    <glyph glyph-name="nanzhuang" unicode="&#xe629;" 
d="M708 759q1 0 7 -1l8 -1l8 1q2 1 4 1q15 0 24 -12l139 -240l1 -3l1 -2q8 -10 7 -21.5t-9 -17.5l-90 -65q-4 -2 -9 -3l-41 -7v-42v-281q0 -21 -14.5 -35.5t-35.5 -14.5h-396q-21 0 -35.5 14.5t-14.5 35.5v281v42l-41 7q-5 1 -9 3l-90 65q-7 6 -8 16q-2 12 6 23l1 2l2 3
l138 240q10 12 24 12q2 0 4 -1l10 -1l9 1q3 1 4 1h27q26 -36 73 -57t102.5 -21t102.5 21t72 57h19zM708 808h-48q-12 -33 -52.5 -55t-93.5 -22t-93.5 22t-51.5 55h-57q-4 0 -14 -1q-6 1 -13 1q-41 0 -66 -34l-139 -243q-20 -26 -16 -58t29 -50l90 -65q13 -9 29 -12v-281
q0 -41 29.5 -70.5t70.5 -29.5h396q41 0 70.5 29.5t29.5 70.5v281q16 3 29 12l90 65q25 18 29 50t-15 58l-140 243q-25 34 -66 34q-7 0 -13 -1q-10 1 -14 1v0z" />
    <glyph glyph-name="zhubao" unicode="&#xe632;" 
d="M967 515h-2l-171 256q-28 41 -78 41h-400q-50 0 -78 -41l-170 -256h-1.5h-0.5h-0.5t0.5 -1h1l-1 -2h2l1 -1v-1l1 -1l1 -1l1 -1v-1l1 -1l1 -1l1 -1v-1l1 -1l1 -1l1 -1v-1l1 -1l1 -1l1 -1v-1l1 -1l1 -1l1 -1v-1l1 -1l1 -1l1 -1v-1l1 -1l1 -1l1 -1v-1l1 -1l1 -1l1 -1v-1
l1 -1l1 -1v-1l1 -1l1 -1l1 -1v-1l1 -1l1 -1l1 -1v-1l1 -1l1 -1l1 -1v-1l1 -1l1 -1l1 -1v-1l1 -1l1 -1l1 -1v-1l1 -1l1 -1l1 -1v-1l1 -1l1 -1l1 -1v-1l1 -1l1 -1l1 -1v-1l1 -1l1 -1v-1l1 -1l1 -1l1 -1v-1l1 -1l1 -1l1 -1v-1l1 -1l1 -1l1 -1v-1l1 -1l1 -1l1 -1v-1l1 -1l1 -1
l1 -1v-1l1 -1l1 -1l1 -1v-1l1 -1l1 -1l1 -1v-1l1 -1l1 -1l1 -1v-1l1 -1l1 -1v-1l1 -1l1 -1l1 -1v-1l1 -1l1 -1l1 -1v-1l1 -1l1 -1l1 -1v-1l1 -1l1 -1l1 -1v-1l1 -1l1 -1l1 -1v-1l1 -1l1 -1l1 -1v-1l1 -1l1 -1l1 -1v-1l1 -1l1 -1l1 -1v-1l1 -1l1 -1l1 -1v-1l1 -1l1 -1v-1
l1 -1l1 -1l1 -1v-1l1 -1l1 -1l1 -1v-1l1 -1l1 -1l1 -1v-1l1 -1l1 -1l1 -1v-1l1 -1l1 -1l1 -1v-1l1 -1l1 -1l1 -1v-1l1 -1l1 -1l1 -1v-1l1 -1l1 -1l1 -1v-1l1 -1l1 -1v-1l1 -1l1 -1l1 -1v-1l1 -1l1 -1l1 -1v-1l1 -1l1 -1l1 -1v-1l1 -1l1 -1l1 -1v-1l1 -1l1 -1l1 -1v-1l1 -1
l1 -1l1 -1v-1l1 -1l1 -1l1 -1v-1l1 -1l1 -1l1 -1v-1l1 -1l1 -1v-1l1 -1l1 -1l1 -1v-1l1 -1l1 -1l1 -1v-1l1 -1l1 -1l1 -1v-1l1 -1l1 -1l1 -1v-1l1 -1l1 -1l1 -1v-1l1 -1l1 -1l1 -1v-1l1 -1l1 -1l1 -1v-1l1 -1l1 -1l1 -1v-1l1 -1l1 -1v-1l1 -1l1 -1l1 -1v-1l1 -1l1 -1l1 -1
v-1l1 -1l1 -1l1 -1v-1l1 -1l1 -1l1 -1v-1l1 -1l1 -1l1 -1v-1l1 -1l1 -1l1 -1v-1l1 -1l1 -1l1 -1v-1l1 -1l1 -1l1 -1v-1l1 -1l1 -1v-1l1 -1l1 -1l1 -1v-1l1 -1l1 -1l1 -1v-1l1 -1l1 -1l1 -1v-1l1 -1l1 -1l1 -1v-1l1 -1l1 -1l1 -1v-1l1 -1l1 -1l1 -1v-1l1 -1l1 -1l1 -1v-1
l1 -1l1 -1l1 -1v-1l1 -1l1 -1v-1l1 -1l1 -1l1 -1v-1l1 -1l1 -1l1 -1v-1l1 -1l1 -1l1 -1v-1l1 -1l1 -1l1 -1v-1l1 -1l1 -1l1 -1v-1l1 -1l1 -1l1 -1v-1l1 -1l1 -1l1 -1v-1l1 -1l1 -1l1 -1v-1l1 -1l1 -1v-1l1 -1l1 -1l1 -1v-1l1 -1l1 -1l1 -1v-1l1 -1l1 -1l1 -1v-1l1 -1l1 -1
l1 -1v-1l1 -1l1 -1l1 -1v-1l1 -1l1 -1l1 -1v-1l1 -1l1 -1l1 -1v-1l1 -1l1 -1l1 -1v-1l1 -1l1 -1l1 -1v-1l1 -1l1 -1l1 -1v-1l1 -1l1 -1v-1l1 -1l1 -1l1 -1v-1l1 -1l1 -1l1 -1v-1l1 -1l1 -1l1 -1v-1l1 -1l1 -1l1 -1v-1l1 -1l1 -1l1 -1v-1l1 -1l1 -1l1 -1v-1l1 -1l1 -1l1 -1
v-1l1 -1l1 -1l1 -1v-1l1 -1l1 -1v-1l1 -1l1 -1l1 -1v-1l1 -1l1 -1l1 -1v-1l1 -1l1 -1l1 -1v-1l1 -1l1 -1l1 -1v-1l1 -1l1 -1l1 -1v-1l1 -1l1 -1l1 -1v-1l1 -1l1 -1l1 -1v-1l1 -1l1 -1l1 -1v-1l1 -1l1 -1v-1l1 -1l1 -1l1 -1v-1l1 -1l1 -1l1 -1v-1l1 -1l1 -1l1 -1v-1l1 -1
l1 -1l1 -1v-1l1 -1l1 -1l1 -1v-1l1 -1l1 -1l1 -1v-1l1 -1l1 -1l1 -1v-1l1 -1l1 -1l1 -1v-1l1 -1l1 -1v-1l1 -1l1 -1l1 -1v-1l1 -1l1 -1l1 -1v-1l1 -1l1 -1l1 -1v-1l1 -1l1 -1l1 -1v-1l1 -1l1 -1l1 -1v-1l1 -1l1 -1l1 -1v-1l1 -1l1 -1l1 -1v-1l1 -1l1 -1l1 -1v-1l1 -1l1 -1
v-1l1 -1l1 -1l1 -1l1 -2q15 -20 40 -20t40 20l1 1l1 1l1 1v1l1 1l1 1l1 1v1l1 1l1 1l1 1v1l1 1l1 1l1 1v1l1 1l1 1l1 1v1l1 1l1 1l1 1v1l1 1l1 1l1 1v1l1 1l1 1l1 1v1l1 1l1 1l1 1l1 1v1l1 1l1 1l1 1v1l1 1l1 1l1 1v1l1 1l1 1l1 1v1l1 1l1 1l1 1v1l1 1l1 1l1 1v1l1 1l1 1
l1 1v1l1 1l1 1l1 1v1l1 1l1 1l1 1v1l1 1l1 1l1 1l1 1v1l1 1l1 1l1 1v1l1 1l1 1l1 1v1l1 1l1 1l1 1v1l1 1l1 1l1 1v1l1 1l1 1l1 1v1l1 1l1 1l1 1v1l1 1l1 1l1 1v1l1 1l1 1l1 1v1l1 1l1 1l1 1l1 1v1l1 1l1 1l1 1v1l1 1l1 1l1 1v1l1 1l1 1l1 1v1l1 1l1 1l1 1v1l1 1l1 1l1 1v1
l1 1l1 1l1 1v1l1 1l1 1l1 1v1l1 1l1 1l1 1l1 1v1l1 1l1 1l1 1v1l1 1l1 1l1 1v1l1 1l1 1l1 1v1l1 1l1 1l1 1v1l1 1l1 1l1 1v1l1 1l1 1l1 1v1l1 1l1 1l1 1v1l1 1l1 1l1 1v1l1 1l1 1l1 1l1 1v1l1 1l1 1l1 1v1l1 1l1 1l1 1v1l1 1l1 1l1 1v1l1 1l1 1l1 1v1l1 1l1 1l1 1v1l1 1l1 1
l1 1v1l1 1l1 1l1 1v1l1 1l1 1l1 1l1 1v1l1 1l1 1l1 1v1l1 1l1 1l1 1v1l1 1l1 1l1 1v1l1 1l1 1l1 1v1l1 1l1 1l1 1v1l1 1l1 1l1 1v1l1 1l1 1l1 1v1l1 1l1 1l1 1v1l1 1l1 1l1 1l1 1v1l1 1l1 1l1 1v1l1 1l1 1l1 1v1l1 1l1 1l1 1v1l1 1l1 1l1 1v1l1 1l1 1l1 1v1l1 1l1 1l1 1v1
l1 1l1 1l1 1v1l1 1l1 1l1 1v1l1 1l1 1l1 1l1 1v1l1 1l1 1l1 1v1l1 1l1 1l1 1v1l1 1l1 1l1 1v1l1 1l1 1l1 1v1l1 1l1 1l1 1v1l1 1l1 1l1 1v1l1 1l1 1l1 1v1l1 1l1 1l1 1l1 1v1l1 1l1 1l1 1v1l1 1l1 1l1 1v1l1 1l1 1l1 1v1l1 1l1 1l1 1v1l1 1l1 1l1 1v1l1 1l1 1l1 1v1l1 1l1 1
l1 1v1l1 1l1 1l1 1v1l1 1l1 1l1 1l1 1v1l1 1l1 1l1 1v1l1 1l1 1l1 1v1l1 1l1 1l1 1v1l1 1l1 1l1 1v1l1 1l1 1l1 1v1l1 1l1 1l1 1v1l1 1l1 1l1 1v1l1 1l1 1l1 1v1l1 1l1 1l1 1l1 1v1l1 1l1 1l1 1v1l1 1l1 1l1 1v1l1 1l1 1l1 1v1l1 1l1 1l1 1v1l1 1l1 1l1 1v1l1 1l1 1l1 1v1
l1 1l1 1l1 1v1l1 1l1 1l1 1l1 1v1l1 1l1 1l1 1v1l1 1l1 1l1 1v1l1 1l1 1l1 1v1l1 1l1 1l1 1v1l1 1l1 1l1 1v1l1 1l1 1l1 1v1l1 1l1 1l1 1v1l1 1l1 1l1 1v1l1 1l1 1l1 1l1 1v1l1 1l1 1l1 1v1l1 1l1 1l1 1v1l1 1l1 1l1 1v1l1 1l1 1l1 1v1l1 1l1 1l1 1v1l1 1l1 1l1 1v1l1 1l1 1
l1 1v1l1 1l1 1l1 1v1l1 1l1 1l1 1l1 1v1l1 1l1 1l1 1v1l1 1l1 1l1 1v1l1 1l1 1l1 1v1l1 1l1 1l1 1v1l1 1l1 1l1 1v1l1 1l1 1l1 1v1l1 1l1 1l1 1v1l1 1l1 1l1 1v1l1 1l1 1l1 1l1 1v1l1 1l1 1l1 1v1l1 1h3l-1 1q0 1 0.5 1.5zM516 762q22 0 35 -21l125 -200h-320l125 200
q13 21 35 21zM280 743q13 19 36 19h119l-138 -221h-152zM315 264l-169 227h120h34l158 -420zM514 65l-161 426h321zM590 101l-19 -26l156 416h39h120zM735 541l-138 221h119q24 0 37 -19l134 -202h-152z" />
    <glyph glyph-name="shouji-copy" unicode="&#xe609;" 
d="M386.5 81q-21.5 0 -36.5 -15t-15 -36t15 -36t36.5 -15t36.5 15t15 36t-15 36t-36.5 15zM639 885h-505q-32 0 -54.5 -22.5t-22.5 -54.5v-848q0 -32 22.5 -54.5t54.5 -22.5h505q32 0 54.5 22.5t22.5 54.5v848q0 32 -22.5 54.5t-54.5 22.5zM134 834h505q11 0 18.5 -7.5
t7.5 -18.5v-635h-557v635q0 11 7.5 18.5t18.5 7.5zM639 -66h-505q-11 0 -18.5 7.5t-7.5 18.5v157h557v-157q0 -11 -7.5 -18.5t-18.5 -7.5z" />
    <glyph glyph-name="lanqiu1" unicode="&#xe62f;" horiz-adv-x="1025" 
d="M1024 355zM1024 369zM1024 384zM874 746q-98 98 -230 133t-264 0t-230 -133t-133 -230t0 -264t133 -230q74 -74 169.5 -112t192.5 -38t192.5 38t169.5 112q98 98 133 230t0 264t-133 230zM967 384q0 -10 -2 -33q-28 4 -55 4q-136 0 -241 -89l-116 116l301 302
q113 -129 113 -300zM597 -15q0 113 72 200l142 -143q-92 -81 -210 -104q-4 26 -4 47zM813 725l-301 -302l-118 118q90 104 90 241q0 24 -5 55q23 2 33 2q172 0 301 -114zM211 724q92 82 211 106q5 -28 5 -48q0 -114 -73 -201zM170 683l143 -143q-87 -71 -199 -71
q-19 0 -48 4q23 119 104 210zM57 384q0 10 2 32q28 -4 55 -4q135 0 239 88l118 -118l-300 -299q-114 129 -114 301zM212 42l300 299l117 -116q-89 -104 -89 -240q0 -25 5 -54q-22 -2 -33 -2q-171 0 -300 113zM852 83l-142 143q86 72 200 72q19 0 48 -4q-24 -119 -106 -211z
" />
    <glyph glyph-name="quanbuchanpin" unicode="&#xe611;" 
d="M426 414h-228q-20 0 -34.5 14.5t-14.5 34.5v239q0 21 14.5 35.5t34.5 14.5h228q21 0 35 -14.5t14 -35.5v-239q0 -20 -14 -34.5t-35 -14.5zM210 475h204v215h-204v-215zM426 15h-228q-20 0 -34.5 14t-14.5 35v239q0 21 14.5 35t34.5 14h228q21 0 35 -14t14 -35v-239
q0 -21 -14 -35t-35 -14zM210 76h204v215h-204v-215zM826 414h-229q-20 0 -34.5 14.5t-14.5 34.5v239q0 21 14.5 35.5t34.5 14.5h229q20 0 34.5 -14.5t14.5 -35.5v-239q0 -20 -14.5 -34.5t-34.5 -14.5zM610 475h203v215h-203v-215zM826 15h-229q-20 0 -34.5 14t-14.5 35v239
q0 21 14.5 35t34.5 14h229q20 0 34.5 -14t14.5 -35v-239q0 -21 -14.5 -35t-34.5 -14zM610 76h203v215h-203v-215z" />
    <glyph glyph-name="iconduanxinyanzhengma" unicode="&#xf002c;" 
d="M878 673q26 0 44.5 -19t18.5 -45v-450q0 -26 -18.5 -45t-44.5 -19h-732q-26 0 -44.5 19t-18.5 45v450q0 26 18.5 45t44.5 19h732zM878 691h-732q-34 0 -58 -24t-24 -58v-450q0 -34 24 -58t58 -24h732q34 0 58 24t24 58v450q0 34 -24 58t-58 24v0zM314 384zM256 384
q0 24 17 41t41 17t41 -17t17 -41t-17 -41t-41 -17t-41 17t-17 41zM512 384zM454 384q0 24 17 41t41 17t41 -17t17 -41t-17 -41t-41 -17t-41 17t-17 41zM710 385zM652 385q0 24 17 41t41 17t41 -17t17 -41t-17 -41t-41 -17t-41 17t-17 41z" />
    <glyph glyph-name="quanbu8" unicode="&#xe6d4;" 
d="M73 674h880v-67h-880v67zM73 420h880v-67h-880v67zM73 171h880v-67h-880v67z" />
    <glyph glyph-name="yundong2" unicode="&#xe86a;" 
d="M791 646q-56 55 -128 84.5t-151 29.5t-151 -29.5t-128 -84.5t-85.5 -126.5t-29.5 -150t29.5 -149.5t85.5 -126.5t128 -85t151 -29.5t151 29.5t128 85t85.5 126.5t29.5 149.5t-29.5 150t-85.5 126.5zM854 376q-128 -3 -225 -86l-82 81l224 221q81 -92 83 -216zM518 709
q123 -2 217 -81l-224 -221l-79 78q83 96 86 224zM395 521l-106 105q79 67 178 80q-4 -105 -72 -185zM252 591l107 -106q-81 -67 -187 -71q14 100 80 177zM170 363q128 3 225 86l80 -78l-223 -221q-80 93 -82 213zM511 335l81 -81q-83 -96 -86 -224q-125 2 -219 83zM557 33
q4 105 72 185v0l106 -106q-77 -66 -178 -79zM772 148l-107 106q81 67 187 71q-13 -100 -80 -177z" />
    <glyph glyph-name="iconfontquanbueps" unicode="&#xe60a;" 
d="M448 410h-259q-14 0 -24 10t-10 24v256q0 14 10 24t24 10h259q14 0 24 -10t10 -24v-256q0 -14 -10 -24t-24 -10v0zM189 712q-5 0 -8 -3.5t-3 -8.5v-256q0 -5 3 -8.5t8 -3.5h259q5 0 8.5 3.5t3.5 8.5v256q0 5 -3.5 8.5t-8.5 3.5h-259v0zM189 712zM834 410h-259
q-14 0 -24 10t-10 24v256q0 14 10 24t24 10h259q14 0 24 -10t10 -24v-256q0 -14 -10 -24t-24 -10v0zM575 712q-5 0 -8.5 -3.5t-3.5 -8.5v-256q0 -5 3.5 -8.5t8.5 -3.5h259q5 0 8.5 3.5t3.5 8.5v256q0 5 -3.5 8.5t-8.5 3.5h-259v0zM575 712zM834 31h-259q-14 0 -24 10t-10 24
v257q0 14 10 24t24 10h259q14 0 24 -10t10 -24v-257q0 -14 -10 -24t-24 -10v0zM575 333q-5 0 -8.5 -3t-3.5 -8v-257q0 -4 3.5 -7.5t8.5 -3.5h259q5 0 8.5 3.5t3.5 7.5v257q0 5 -3.5 8t-8.5 3h-259v0zM575 333zM448 31h-259q-14 0 -24 10t-10 24v257q0 14 10 24t24 10h259
q14 0 24 -10t10 -24v-257q0 -14 -10 -24t-24 -10v0zM189 333q-5 0 -8 -3t-3 -8v-257q0 -4 3 -7.5t8 -3.5h259q5 0 8.5 3.5t3.5 7.5v257q0 5 -3.5 8t-8.5 3h-259v0zM189 333z" />
    <glyph glyph-name="nanxie1" unicode="&#xe64f;" 
d="M945 468q-15 10 -33 4v122q0 20 -16 30.5t-34 3.5l-17.5 -5t-40.5 -5t-61 2.5t-75.5 23.5t-86.5 52q-11 9 -24.5 8.5t-22.5 -9.5q-6 -5 -17 -14.5t-41 -33t-60 -43.5t-70.5 -41t-74.5 -30q-27 -4 -54.5 -12.5t-57.5 -26.5t-52 -42t-34.5 -61.5t-8.5 -82.5
q2 -14 12.5 -23.5t24.5 -9.5h0.5h0.5q-5 -7 -6 -7q-50 -73 -24 -176q3 -13 13 -20.5t22 -7.5h817q16 0 26.5 10.5t10.5 25.5v338q0 19 -16 30zM282 460q2 1 5 1q124 34 273 160q137 -95 279 -73v-79q0 -4 1 -9h-3h-4q-115 0 -223 84q-11 9 -24.5 8.5t-23.5 -9.5
q-6 -6 -17 -16t-43.5 -35t-64.5 -46t-75.5 -43.5t-79.5 -32.5q-84 -12 -145 -60v5q-3 35 9.5 62.5t31 42t43.5 24.5t38 12.5t23 3.5zM888 137h-751q-6 52 19 89q12 16 31 30t35 21t34.5 12.5t25.5 6.5t11 2q3 0 5 1q132 35 291 170q117 -83 244 -83v0q28 0 55 5v-254z" />
    <glyph glyph-name="iconyanzhengma" unicode="&#xe60e;" 
d="M561 84h-100q-94 0 -174.5 45t-127.5 122.5t-47 169t47 169t127.5 122.5t174.5 45h100q95 0 175.5 -45t127 -122.5t46.5 -169t-46.5 -169t-127 -122.5t-175.5 -45v0v0zM569 707h-116q-120 0 -205.5 -84t-85.5 -202.5t85.5 -202.5t205.5 -84h116q121 0 206 84t85 202.5
t-85 202.5t-206 84v0v0zM686 372q-21 0 -35.5 14t-14.5 34t14.5 34t35 14t35 -14t14.5 -34t-14.5 -34t-34.5 -14v0v0zM511 372q-21 0 -35.5 14t-14.5 34t14.5 34t35.5 14t35.5 -14t14.5 -34t-14.5 -34t-35.5 -14v0v0zM337 372q-21 0 -35.5 14t-14.5 34t14.5 34t35 14t35 -14
t14.5 -34t-14.5 -34t-34.5 -14v0v0zM337 372z" />
    <glyph glyph-name="nanzhuang1" unicode="&#xe60c;" 
d="M764 -73h-501v569h43v-526h415v528h194l39 176l-231 116q-8 -20 -21 -37.5t-36.5 -37t-63 -31.5t-89.5 -12v43q44 0 78.5 11t52 25t29 32.5t14 26.5t3.5 13l4 29l310 -155l-55 -242h-185v-528zM306 455h-231l-54 242l309 155l4 -29q1 -5 4 -13t15 -26.5t29.5 -32.5
t52 -25t78.5 -11v-43q-50 0 -89.5 12t-63.5 32t-37.5 37.5t-21.5 36.5l-231 -116l39 -176h197v-43zM740 476z" />
    <glyph glyph-name="all" unicode="&#xe61e;" 
d="M430 786v-330h-320v330h320zM440 832h-340q-15 0 -25.5 -10.5t-10.5 -25.5v-340q0 -15 10.5 -25.5t25.5 -10.5h340q15 0 25.5 10.5t10.5 25.5v340q0 15 -10.5 25.5t-25.5 10.5v0v0zM914 796v-330h-320v320h320v10zM924 832h-340q-15 0 -25.5 -10.5t-10.5 -25.5v-340
q0 -15 10.5 -25.5t25.5 -10.5h340q15 0 25.5 10.5t10.5 25.5v340q0 15 -10.5 25.5t-25.5 10.5v0v0zM430 302v-320h-320v320h320zM440 348h-340q-15 0 -25.5 -10.5t-10.5 -25.5v-340q0 -15 10.5 -25.5t25.5 -10.5h340q15 0 25.5 10.5t10.5 25.5v340q0 15 -10.5 25.5
t-25.5 10.5v0v0zM914 302v-320h-320v320h320zM924 348h-340q-15 0 -25.5 -10.5t-10.5 -25.5v-340q0 -15 10.5 -25.5t25.5 -10.5h340q15 0 25.5 10.5t10.5 25.5v340q0 15 -10.5 25.5t-25.5 10.5v0v0z" />
    <glyph glyph-name="zhubao1" unicode="&#xe879;" 
d="M951 502q-1 1 -1 2l-123 217q-8 14 -25 14h-580q-17 0 -25 -14l-124 -219q-8 -14 1 -28q1 -4 4 -6v-1l412 -500q8 -11 22 -11t22 11l412 500v1q5 6 7 12q4 12 -2 22zM785 677l85 -149h-172l-54 149h141zM442 677h140l54 -149h-249zM239 677h141l-54 -149h-172zM407 158
l-256 312h182l89 -304zM512 67l-119 403h238zM617 158l-15 8l89 304h181z" />
    <glyph glyph-name="shouji-copy1" unicode="&#xe602;" 
d="M738 887h-454q-19 0 -32.5 -14t-13.5 -33v-829q0 -19 13.5 -32.5t32.5 -13.5h454q19 0 32.5 13.5t13.5 32.5v829q0 19 -13.5 33t-32.5 14zM750 11q0 -5 -3.5 -8.5t-8.5 -3.5h-454q-5 0 -8.5 3.5t-3.5 8.5v159h478v-159zM750 204h-478v545h478v-545zM750 783h-478v57
q0 5 3.5 8.5t8.5 3.5h454q5 0 8.5 -3.5t3.5 -8.5v-57zM460 101h102v-34h-102v34z" />
    <glyph glyph-name="shouji3" unicode="&#xe616;" 
d="M689 859h-380q-19 0 -35 -7q-15 -7 -28 -18l-1 -2q-13 -13 -20 -29.5t-7 -34.5v-771q0 -18 7 -34.5t20 -29.5l1 -2q13 -11 28 -18q16 -6 35 -6h380q18 0 35 6q15 7 27 18l2 2q13 13 20 29.5t7 34.5v771q0 18 -7 34.5t-20 29.5l-2 2q-12 11 -27 18q-17 7 -35 7v0zM499 81
q21 0 36.5 -15.5t15.5 -37t-15.5 -37t-37 -15.5t-36.5 15.5t-15 37t15 37t37 15.5v0zM737 151h-476h-11v11v606q0 11 4.5 22t12.5 19l3 3h1q7 6 15 10q11 4 23 4h380q12 0 23 -4q8 -4 15 -10v0l4 -3q8 -8 12.5 -19t4.5 -22v-606v-11h-11v0zM261 119h476h11v-11v-111
q0 -11 -4.5 -22t-12.5 -19l-4 -3v0q-7 -6 -15 -10q-11 -4 -23 -4h-380q-12 0 -23 4q-8 4 -15 10h-1l-3 3q-8 8 -12.5 19t-4.5 22v111v11h11z" />
    <glyph glyph-name="z-phone" unicode="&#xe64c;" 
d="M468 64q0 -18 13 -31t31 -13t31 13t13 31t-13 30.5t-31 12.5t-31 -12.5t-13 -30.5zM470 724h84v-26h-84v26zM754 834h-484q-22 0 -37.5 -15.5t-15.5 -37.5v-790q0 -22 15.5 -37.5t37.5 -15.5h484q22 0 37.5 15.5t15.5 37.5v790q0 22 -15.5 37.5t-37.5 15.5zM751 778v-139
h-478v139h478zM751 613v-452h-478v452h478zM273 -6v140h478v-140h-478z" />
    <glyph glyph-name="nvzhuang-copy" unicode="&#xe603;" 
d="M900 62q-29 47 -108 176t-121 199q14 30 41.5 87.5t40.5 84.5q9 19 -4 35q-35 45 -31 159q1 11 -7.5 19.5t-20.5 8.5h-102q-9 0 -17.5 -6t-10.5 -15q-10 -62 -45 -76q-26 -10 -42 14.5t-18 54.5q0 12 -8 20t-20 8h-97q-13 1 -23.5 -6t-10.5 -22q-5 -116 -34 -152
q-15 -19 -8 -35q14 -31 38.5 -89.5t36.5 -86.5q-106 -184 -187 -332q-3 -5 -9 -15.5t-8 -15t-5.5 -13t-4 -14.5t1 -14.5t6.5 -16.5q11 -22 33 -40t46 -28q49 -17 83.5 -6.5t67.5 48.5q16 14 30 14t33 -10.5t34.5 -23.5t34.5 -23t32 -10q29 0 76 31t62 36q9 3 21 -4.5t26 -22
t16 -16.5q30 -23 69 -16q32 6 64.5 30.5t49.5 54.5q8 14 -1 29v0zM493 676q43 -3 74.5 25t43.5 73h50q1 -95 36 -153q-11 -22 -35 -74t-37 -80h-238q-5 13 -16.5 36t-12.5 24q-8 19 -23 53.5t-21 46.5q32 51 38 147h50q9 -40 32 -68t59 -30zM801 18q-16 -11 -29.5 -11
t-20 4.5t-19.5 16.5t-22 19q-14 9 -29.5 13t-26.5 4t-28.5 -7.5t-25 -11.5t-27.5 -16t-26 -15q-1 -1 -8 -5.5t-9.5 -6t-10 -4t-9.5 0.5q-7 4 -14.5 9t-17.5 13t-13 11q-51 39 -99 30q-38 -8 -72 -48q-18 -20 -41.5 -18t-45 15.5t-35.5 33.5q24 43 65.5 116t76.5 134t67 114
h241q3 -6 26 -44q35 -58 98.5 -165.5t90.5 -151.5q-12 -16 -36 -30z" />
    <glyph glyph-name="quanbu9" unicode="&#xe633;" 
d="M512 -128q139 0 257 68.5t186.5 186.5t68.5 257t-68.5 257t-186.5 186.5t-257 68.5t-257 -68.5t-186.5 -186.5t-68.5 -257t68.5 -257t186.5 -186.5t257 -68.5zM384 597h384v-64h-384v64zM384 427h384v-64h-384v64zM384 256h384v-64h-384v64zM256 597h85v-64h-85v64z
M256 427h85v-64h-85v64zM256 256h85v-64h-85v64z" />
    <glyph glyph-name="shouji4" unicode="&#xe7fd;" 
d="M755 829h-486q-28 0 -48 -19.5t-20 -47.5v-756q0 -28 20 -47.5t48 -19.5h486q28 0 48 19.5t20 47.5v756q0 28 -20 47.5t-48 19.5zM269 796h486q14 0 24 -10t10 -24v-79h-554v79q0 14 10 24t24 10zM789 650v-482h-554v482h554zM755 -28h-486q-14 0 -24 10t-10 24v129h554
v-129q0 -14 -10 -24t-24 -10zM512 92q-18 0 -30.5 -12.5t-12.5 -30.5t12.5 -30.5t30.5 -12.5t30.5 12.5t12.5 30.5t-12.5 30.5t-30.5 12.5z" />
    <glyph glyph-name="xiezi-copy" unicode="&#xe617;" 
d="M916 195q-31 27 -92 62q-3 2 -26 15.5t-33 18.5t-28.5 10t-32.5 3q-4 0 -9 -2q-3 -1 -6 -3q-22 -13 -44.5 -16t-40 -0.5t-37 15.5t-32 24t-30.5 34t-26.5 35.5t-25 38.5t-21.5 33q-67 101 -126 177q-3 3 -14.5 18.5t-16.5 21.5t-16.5 19t-19.5 20t-19.5 14.5t-21.5 10.5
q-33 12 -83 -50q-64 -78 -47 -199q3 -26 19 -73.5t20 -61.5q31 -124 34 -307q0 -12 8.5 -20t19.5 -8h89q11 0 18 8t7 20v292q8 -4 15 -9.5t14 -13t10.5 -11.5t11 -13t9.5 -11q22 -27 58 -94t63 -96q25 -28 57 -44.5t63.5 -21.5t68 -7t70.5 1q4 0 23.5 0.5t28 1t28.5 2
t31 3.5t29 5.5t29.5 8.5t24.5 11.5t22 15.5t15 20q25 46 -38 102zM886 106q-15 -7 -34.5 -12.5t-34 -8t-41 -4t-36.5 -1.5h-40.5h-34.5q-29 0 -52 1q-45 2 -84 33.5t-62 75.5q-22 42 -35.5 66.5t-37.5 57t-50 55.5q-43 40 -79 45q-14 2 -26 -5.5t-12 -22.5v-305h-32
q-2 112 -13 199t-42 161q-25 52 -20.5 115.5t43.5 108.5q11 12 24 22q6 -5 22 -21q22 -21 44.5 -48t38.5 -47.5t40 -55.5t34.5 -51.5t36.5 -57.5t33 -52q32 -50 75 -83t96.5 -43t107.5 21q7 0 18 -5t24.5 -13.5t15.5 -10.5q24 -12 52 -29q41 -25 65 -49q15 -15 14.5 -21
t-18.5 -15z" />
    <glyph glyph-name="quanbu10" unicode="&#xe6fc;" 
d="M399 622h-79q-28 0 -47 -19t-19 -47v-79q0 -28 19 -47t47 -19h79q27 0 46.5 19t19.5 47v79q0 28 -19.5 47t-46.5 19zM693 622h-80q-27 0 -46.5 -19t-19.5 -47v-79q0 -28 19.5 -47t46.5 -19h80q27 0 46.5 19t19.5 47v79q0 28 -19.5 47t-46.5 19zM399 352h-79
q-28 0 -47 -19t-19 -46v-81q0 -27 19 -46t47 -19h79q27 0 46.5 19t19.5 46v81q0 27 -19.5 46t-46.5 19zM693 352h-80q-27 0 -46.5 -19t-19.5 -46v-81q0 -27 19.5 -46t46.5 -19h80q27 0 46.5 19t19.5 46v81q0 27 -19.5 46t-46.5 19zM512 891q-103 0 -197 -40t-162 -108
t-108 -162t-40 -197t40 -197t108 -162t162 -108t197 -40t197 40t162 108t108 162t40 197t-40 197t-108 162t-162 108t-197 40zM512 -89q-96 0 -183.5 37.5t-151 101t-100.5 151t-37 183.5t37 183.5t100.5 151t151 100.5t183.5 37t183.5 -37t151 -100.5t101 -151t37.5 -183.5
t-37.5 -183.5t-101 -151t-151 -101t-183.5 -37.5z" />
    <glyph glyph-name="nvzhuang1" unicode="&#xe61f;" 
d="M957 13q-32 54 -123 201.5t-139 228.5q16 35 47.5 101t46.5 97q10 22 -4 40q-41 52 -36 182q1 13 -9 23t-23 10h-117q-11 0 -21 -7t-11 -17q-11 -72 -52 -87q-21 -8 -37 5.5t-23 33t-9 39.5q-1 14 -10 23.5t-23 9.5h-111q-14 1 -26 -7.5t-13 -24.5q-2 -40 -4.5 -65
t-11 -58.5t-23.5 -51.5q-17 -22 -9 -40q16 -35 44 -102.5t42 -99.5q-121 -211 -215 -382q-2 -4 -11.5 -20t-11.5 -21.5t-5.5 -17.5t-1.5 -22t8 -21q13 -25 38.5 -46t52.5 -32q56 -19 96 -7t78 55q17 16 33.5 16t38.5 -12t40 -26.5t39.5 -26.5t36.5 -12q25 0 52.5 15.5
t57 35.5t49.5 26q10 4 23.5 -5t29.5 -25.5t19 -18.5q35 -27 79 -18q37 7 74.5 35t56.5 62q9 16 -2 34zM490 717q50 -3 86 29.5t50 83.5h57q1 -109 42 -175q-14 -30 -41.5 -89t-41.5 -89h-273q-6 16 -19.5 42t-14.5 28q-9 22 -27 62.5t-23 51.5q37 59 44 169h57
q10 -46 36.5 -78t67.5 -35zM844 -39q-19 -12 -34 -12t-23 5.5t-23 19t-25 21.5q-16 11 -33.5 15t-30 4t-33 -8t-29 -12.5t-31.5 -19t-29 -17.5q-2 -1 -7.5 -4.5t-9 -5.5t-9.5 -5t-9 -3t-8 1q-9 4 -17 10t-19.5 15.5t-15.5 12.5q-59 45 -113 34q-45 -9 -83 -54
q-21 -24 -48 -21.5t-51.5 18t-41.5 38.5q11 18 101.5 177.5t139.5 240.5h277q2 -6 29 -51q40 -66 113 -189t104 -175q-13 -18 -41 -35z" />
    <glyph glyph-name="quanbu11" unicode="&#xe654;" 
d="M830 -128h-119q-78 0 -133.5 55.5t-55.5 133.5v119q0 78 55.5 133.5t133.5 55.5h119q78 0 133.5 -55.5t55.5 -133.5v-119q0 -78 -55.5 -133.5t-133.5 -55.5zM711 310q-54 0 -92 -38.5t-38 -91.5v-119q0 -54 38 -92t92 -38h119q54 0 92 38t38 92v119q0 53 -38 91.5
t-92 38.5h-119zM313 -128h-119q-78 0 -133.5 55.5t-55.5 133.5v119q0 78 55.5 133.5t133.5 55.5h119q78 0 133.5 -55.5t55.5 -133.5v-119q0 -78 -55.5 -133.5t-133.5 -55.5zM194 310q-54 0 -92 -38.5t-38 -91.5v-119q0 -54 38 -92t92 -38h119q54 0 92 38t38 92v119
q0 53 -38 91.5t-92 38.5h-119zM830 389h-119q-78 0 -133.5 55.5t-55.5 133.5v119q0 78 55.5 133.5t133.5 55.5h119q78 0 133.5 -55.5t55.5 -133.5v-119q0 -78 -55.5 -133.5t-133.5 -55.5zM711 827q-54 0 -92 -38t-38 -92v-119q0 -54 38 -92t92 -38h119q54 0 92 38t38 92v119
q0 54 -38 92t-92 38h-119zM313 389h-119q-78 0 -133.5 55.5t-55.5 133.5v119q0 78 55.5 133.5t133.5 55.5h119q78 0 133.5 -55.5t55.5 -133.5v-119q0 -78 -55.5 -133.5t-133.5 -55.5zM194 827q-54 0 -92 -38t-38 -92v-119q0 -54 38 -92t92 -38h119q54 0 92 38t38 92v119
q0 54 -38 92t-92 38h-119z" />
    <glyph glyph-name="yanzhengma1" unicode="&#xe620;" 
d="M512 90q9 0 12 6l102 102l11 10h13h109q22 0 37 15t15 36v367q0 22 -15 37t-37 15h-494q-22 0 -37 -15t-15 -37v-368q0 -22 15 -36.5t37 -14.5h109h13l11 -11l102 -102q3 -4 12 -4zM512 56q-20 0 -36 16l-102 102h-109q-36 0 -61 25t-25 60v367q0 36 25 61t61 25h494
q36 0 61 -25t25 -61v-368q0 -36 -25 -61t-61 -25h-109l-102 -102q-17 -14 -36 -14v0v0zM297 500q-9 0 -9 8.5t9 8.5h428q9 0 9 -8.5t-9 -8.5h-428zM357 398q-9 0 -9 8.5t9 8.5h307q8 0 8 -8.5t-8 -8.5h-307v0z" />
    <glyph glyph-name="quanbu12" unicode="&#xe67b;" 
d="M499 396h-185q-77 0 -131.5 54t-54.5 131t54.5 131.5t131.5 54.5t131 -54t54 -131v-186zM314 744q-67 0 -114.5 -47.5t-47.5 -114.5t47.5 -114t114.5 -47h161v161q0 67 -47 114.5t-114 47.5zM313.5 0q-76.5 0 -131 54.5t-54.5 131t54.5 131t131.5 54.5h185v-185
q0 -77 -54.5 -131.5t-131 -54.5zM314 348q-67 0 -114.5 -47.5t-47.5 -113.5q0 -67 47.5 -114t114.5 -47t114 47t47 114v161h-161zM710 396h-185v186q0 77 54.5 131.5t131 54.5t131 -54.5t54.5 -131.5t-54.5 -131.5t-131.5 -54.5zM549 420h161q67 0 114.5 47.5t47.5 113.5
q0 67 -47.5 114t-114.5 47q-66 0 -113.5 -47.5t-47.5 -113.5v-161zM536 186zM710.5 0q-76.5 0 -131 54.5t-54.5 131.5v186h185q77 0 131.5 -54t54.5 -131q0 -78 -54.5 -132.5t-131 -54.5zM549 348v-161q0 -67 47.5 -114t113.5 -47q67 0 114.5 47.5t47.5 113.5
q0 67 -47.5 114t-114.5 47h-161z" />
    <glyph glyph-name="yanzhengma2" unicode="&#xe63e;" horiz-adv-x="1038" 
d="M107 -37q-43 0 -74 31t-31 75v630q0 44 31 75t74 31h810q43 0 74 -31t31 -75v-630q0 -44 -31 -75t-74 -31h-810v0zM107 769q-29 0 -49.5 -20.5t-20.5 -49.5v-630q0 -29 20.5 -49.5t49.5 -20.5h810q29 0 49.5 20.5t20.5 49.5v630q0 29 -20.5 49.5t-49.5 20.5h-810v0z
M107 769zM235 354q-19 0 -32 13t-13 31.5t13 32t31.5 13.5t32 -13.5t13.5 -32t-13.5 -31.5t-31.5 -13v0zM235 354zM789 354q-19 0 -32 13t-13 31.5t13 32t32 13.5t32 -13.5t13 -32t-13 -31.5t-32 -13v0zM789 354zM512 354q-18 0 -31.5 13t-13.5 31.5t13.5 32t32 13.5
t31.5 -13.5t13 -32t-13 -31.5t-32 -13v0zM512 354z" />
    <glyph glyph-name="quanbu13" unicode="&#xe645;" 
d="M534 398v235q0 98 69 167t166.5 69t166.5 -69t69 -166.5t-69 -166.5t-167 -69h-235zM769 454q74 0 126.5 52.5t52.5 126.5t-52.5 126.5t-126.5 52.5t-126 -52.5t-52 -126.5v-179h178zM258 398q-98 0 -167 69t-69 166.5t69 166.5t166.5 69t166.5 -69t69 -167v-235h-235z
M258 812q-74 0 -126.5 -52.5t-52.5 -126.5t52.5 -126.5t126.5 -52.5h178v179q0 74 -52 126.5t-126 52.5zM769 -114q-97 0 -166 69t-69 167v235h235q98 0 167 -69t69 -166q0 -35 -10 -67q-6 -21 -27 -21v0q-4 0 -8 2q-11 3 -17 13.5t-2 21.5q7 25 7 51q0 74 -52.5 126
t-126.5 52h-178v-178q0 -74 52 -126.5t126 -52.5q42 0 79 18q6 3 13 3q17 0 25 -16q5 -10 1.5 -21.5t-14.5 -16.5q-49 -24 -104 -24zM257.5 -114q-97.5 0 -166.5 69t-69 166.5t69 166.5t167 69h235v-235q0 -98 -69 -167t-166.5 -69zM258 300q-74 0 -126.5 -52t-52.5 -126
t52.5 -126.5t126.5 -52.5t126 52.5t52 126.5v178h-178z" />
    <glyph glyph-name="nanzhuang2" unicode="&#xe64e;" horiz-adv-x="1080" 
d="M779 830l8 -1l9 -1l10 2h5q17 0 29 -14l167 -290l1 -3l2 -2q9 -12 8 -26t-11 -21l-109 -78q-4 -3 -10 -4l-50 -9v-50v-339q0 -25 -17.5 -42.5t-41.5 -17.5h-478q-25 0 -42.5 17.5t-17.5 42.5v339v50l-50 9q-6 1 -10 4l-109 78q-9 7 -10 19q-2 15 7 28l2 2l2 3l166 290
q12 14 29 14h5l13 -2l10 1q4 1 5 1h33q31 -43 87.5 -68.5t123.5 -25.5t123.5 25.5t87.5 68.5h23v0zM779 890h-59q-14 -41 -62.5 -67.5t-112.5 -26.5t-113 26.5t-62 67.5h-69q-4 0 -16 -2q-8 2 -17 2q-49 0 -78 -41l-169 -293q-23 -32 -18.5 -70.5t34.5 -59.5l109 -79
q15 -11 35 -14v-339q0 -50 35 -85t85 -35h478q49 0 84 35t35 85v339q20 3 35 14l109 79q30 21 35 59.5t-19 70.5l-168 293q-30 41 -79 41q-8 0 -16 -2q-12 2 -16 2v0v0z" />
    <glyph glyph-name="shoushi" unicode="&#xe651;" horiz-adv-x="1133" 
d="M915 843q-16 24 -42 38t-55 14h-501q-29 0 -55 -14t-42 -38l-213 -320l-3 -4q84 -110 253 -304.5t256 -311.5q18 -25 50 -25q31 0 50 25q86 113 257.5 308t257.5 308q1 2 2 3l1 1zM568 832q27 0 44 -26l156 -250h-401l156 250q17 26 45 26v0zM272 808q16 24 45 24h149
l-172 -276h-190l168 252v0zM105 493h150h42l205 -483l-186 225zM364 493h401l-201 -488zM631 11l200 482h49h150l-374 -450zM841 556l-172 276h149q29 0 45 -24l168 -252h-190v0z" />
    <glyph glyph-name="nanzhuang3" unicode="&#xe657;" horiz-adv-x="1047" 
d="M611 630q1 0 6 -1l6 -1l7 1q2 1 4 1q12 0 21 -10l118 -206l1 -2l2 -2q6 -9 5 -18.5t-7 -14.5l-78 -56q-3 -2 -7 -3l-35 -6v-36v-241q0 -18 -12.5 -30.5t-30.5 -12.5h-340q-18 0 -30.5 12.5t-12.5 30.5v241v36l-35 6q-4 1 -7 3l-78 56q-6 4 -7 13q-1 10 5 20l2 2l1 2
l118 205q9 11 21 11q2 0 3 -1l9 -1l7 1q3 1 4 1h24q21 -31 61.5 -49t88 -18t88 18t61.5 49h17v0zM611 672h-42q-10 -28 -44.5 -47t-80 -19t-80 18.5t-44.5 47.5h-49q-3 0 -12 -1q-5 1 -11 1q-35 0 -56 -29l-120 -208q-17 -23 -13.5 -50t24.5 -43l78 -56q11 -8 25 -10v-241
q0 -35 25 -60t60 -25h340q35 0 60 25t25 60v241q14 2 25 10l77 56q22 16 25.5 43t-13.5 50l-120 208q-21 29 -56 29q-6 0 -12 -1q-8 1 -11 1v0v0z" />
    <glyph glyph-name="shoushi2" unicode="&#xe65a;" horiz-adv-x="1062" 
d="M688 635q-24 36 -67 36h-346q-43 0 -67 -36l-147 -220l-2 -3q57 -76 174 -210.5t177 -215.5q13 -17 35 -17q21 0 34 17q60 78 178.5 212.5t177.5 213.5q2 2 2 3zM448 628q19 0 31 -18l107 -173h-276l108 173q11 18 30 18v0zM244 611q11 17 31 17h103l-119 -191h-131
l116 174v0zM128 394h104h29l142 -334l-129 156zM307 394h277l-138 -337zM492 60l138 334h34h103l-258 -311zM637 437l-119 191h103q20 0 31 -17l116 -174h-131v0z" />
    <glyph glyph-name="quanbu14" unicode="&#xe62a;" 
d="M512 -359zM492 674q0 23 -16 39t-39 16h-191q-22 0 -38.5 -16t-16.5 -39v-191q0 -23 16.5 -39t38.5 -16h191q23 0 39 16t16 39v191zM447 483q0 -10 -10 -10h-191q-10 0 -10 10v191q0 10 10 10h191q10 0 10 -10v-191zM845 674q0 23 -16 39t-39 16h-191q-22 0 -38.5 -16
t-16.5 -39v-191q0 -23 16.5 -39t38.5 -16h191q23 0 39 16t16 39v191zM800 483q0 -10 -10 -10h-191q-10 0 -10 10v191q0 10 10 10h191q10 0 10 -10v-191zM492 333q0 23 -16 39t-39 16h-191q-22 0 -38.5 -16t-16.5 -39v-191q0 -22 16.5 -38t38.5 -16h191q23 0 39 16t16 38v191
zM447 142q0 -9 -10 -9h-191q-10 0 -10 9v191q0 10 10 10h191q10 0 10 -10v-191zM695 383q-62 0 -106.5 -44t-44.5 -106t44.5 -106.5t106.5 -44.5t106 44.5t44 106.5t-44 106t-106 44zM694.5 127q-43.5 0 -74.5 31t-31 74.5t31 74.5t74.5 31t74.5 -31t31 -74.5t-31 -74.5
t-74.5 -31z" />
    <glyph glyph-name="quanbuxuanzhong" unicode="&#xe621;" 
d="M341 171h512q18 0 30.5 -12.5t12.5 -30.5t-12.5 -30.5t-30.5 -12.5h-512q-17 0 -29.5 12.5t-12.5 30.5t12.5 30.5t29.5 12.5zM171 128zM128 128q0 18 12.5 30.5t30 12.5t30 -12.5t12.5 -30.5t-12.5 -30.5t-30 -12.5t-30 12.5t-12.5 30.5zM341 427h512q18 0 30.5 -12.5
t12.5 -30.5t-12.5 -30.5t-30.5 -12.5h-512q-17 0 -29.5 12.5t-12.5 30.5t12.5 30.5t29.5 12.5zM171 384zM128 384q0 18 12.5 30.5t30 12.5t30 -12.5t12.5 -30.5t-12.5 -30.5t-30 -12.5t-30 12.5t-12.5 30.5zM341 683h512q18 0 30.5 -12.5t12.5 -30.5t-12.5 -30.5
t-30.5 -12.5h-512q-17 0 -29.5 12.5t-12.5 30.5t12.5 30.5t29.5 12.5zM171 640zM128 640q0 18 12.5 30.5t30 12.5t30 -12.5t12.5 -30.5t-12.5 -30.5t-30 -12.5t-30 12.5t-12.5 30.5z" />
    <glyph glyph-name="yanzhengma3" unicode="&#xe634;" 
d="M920 715h-816q-15 0 -26 -11t-11 -26v-588q0 -15 11 -26t26 -11h816q15 0 26 11t11 26v588q0 15 -11 26t-26 11zM114 100v568h796v-568h-796zM218 531h61v-297h-66v233q-32 -23 -70 -39v59v0q40 19 75 44zM459 277h146v-43h-211v60q7 8 35 32q111 94 109 129
q-3 37 -37 39q-33 -4 -37 -45h-65q2 85 102 89q99 -6 103 -84q3 -54 -98 -133q-35 -30 -47 -44zM882 307q-9 -70 -106 -77q-101 0 -101 86h66q1 -40 37 -45q35 3 38 45q-1 50 -72 49v42q74 1 72 47q-1 38 -37 40q-30 -5 -35 -40h-65q5 80 100 84q94 -9 101 -76
q-2 -60 -57 -74q59 -17 59 -81z" />
    <glyph glyph-name="icon4" unicode="&#xe636;" 
d="M982 19h-932q-14 0 -25.5 9t-14.5 23q-30 117 28 200q22 32 55 56t67 36.5t54 17.5t35 7q42 12 91 37t86 49.5t73.5 53t50 40t19.5 17.5q12 10 27 10.5t27 -8.5q123 -97 254 -97q55 0 89 14q21 8 39.5 -4.5t18.5 -34.5v-384q0 -18 -12 -30t-30 -12zM85 102h855v290
q-30 -5 -63 -5q-143 0 -277 94q-39 -33 -82 -65t-115.5 -72.5t-134.5 -56.5l-6 -2q-5 0 -12.5 -1.5t-28.5 -7.5t-39.5 -14t-40 -23.5t-35.5 -35.5q-28 -41 -21 -101zM43 260q-16 0 -28 10.5t-14 26.5q-5 51 9.5 94t39.5 70.5t59.5 48t66 30.5t61.5 14q39 11 85 34.5t80 46
t69 50t46.5 37.5t19.5 16q11 10 26.5 11t27.5 -9q48 -38 98.5 -59.5t86 -27t69.5 -3t46 6t20 5.5q20 9 38.5 -3.5t18.5 -34.5v-143q0 -17 -12 -29.5t-29.5 -12.5t-29.5 12.5t-12 29.5v89q-163 -25 -318 84q-171 -143 -311 -182q-3 -1 -7 -1q-11 -1 -25.5 -4t-43 -14.5
t-49.5 -28t-35.5 -48t-11.5 -70.5q2 -18 -9 -31t-28 -15h-4z" />
    <glyph glyph-name="shouji5" unicode="&#xe630;" 
d="M741 731h-463v55q0 5 3.5 8.5t8.5 3.5h439q5 0 8.5 -3.5t3.5 -8.5v-55zM741 170h-463v528h463v-528zM741 -16q0 -5 -3.5 -8.5t-8.5 -3.5h-439q-5 0 -8.5 3.5t-3.5 8.5v153h463v-153zM729 831h-439q-19 0 -32 -13.5t-13 -31.5v-802q0 -19 13 -32t32 -13h439q19 0 32 13
t13 32v802q0 18 -13 31.5t-32 13.5zM460 71h99v-33h-99v33z" />
    <glyph glyph-name="shuruyanzhengma" unicode="&#xe6ba;" horiz-adv-x="1243" 
d="M129 -128q-54 0 -91.5 37.5t-37.5 91.5v766q0 54 37.5 91.5t91.5 37.5h985q53 0 91 -37.5t38 -91.5v-766q0 -54 -38 -91.5t-91 -37.5h-985v0zM129 853q-36 0 -61 -25t-25 -61v-766q0 -36 25 -61t61 -25h985q35 0 60 25t25 61v766q0 36 -25 61t-60 25h-985v0v0zM284 347
q-23 0 -39 16t-16 39t16 39t39 16t39 -16t16 -39t-16 -39t-39 -16v0zM959 347q-23 0 -39 16t-16 39t16 39t38.5 16t38.5 -16t16 -39t-16 -39t-38 -16v0zM621 347q-22 0 -38 16t-16 39t16 39t38.5 16t38.5 -16t16 -39t-16 -39t-39 -16v0z" />
    <glyph glyph-name="xiebaopeishi3" unicode="&#xe83c;" horiz-adv-x="1027" 
d="M177 768q18 0 49.5 -18t66.5 -51q80 -77 118 -167q67 -159 116 -224q30 -40 66 -68q34 -25 80 -45q27 -12 79 -35q112 -49 152 -70q29 -15 45 -28q5 -4 8 -7q-13 -17 -37 -33q-36 -24 -54 -24h-298q-15 0 -44 37q-25 34 -77 132q-24 46 -37 69q-29 52 -64 89
q-21 23 -43 37q-31 21 -63 21q-33 0 -56 -25q-11 -12 -19 -30q-9 -21 -17 -56q-11 -51 -20 -139q-1 -8 -2 -17q-5 95 -16 175q-12 86 -36 178q-9 32 -9 38q0 29 6.5 69.5t13.5 65.5q21 66 57 102q21 22 35 24zM177 832q-37 0 -82 -43t-71 -128q-9 -30 -16 -75t-7 -79
q0 -13 10 -53.5t22.5 -95t23 -168.5t10.5 -256h111q16 384 62 384q25 0 56.5 -34t57.5 -80q12 -22 33.5 -62t34 -63.5t32.5 -54.5t36 -48.5t36.5 -30t41.5 -12.5h298q43 0 101.5 44t58.5 79q0 13 -7.5 26.5t-26.5 27.5t-37 25.5t-53 28t-59 27t-70.5 30.5t-73.5 32
q-76 34 -120.5 93t-108.5 210q-43 103 -133.5 189.5t-159.5 86.5v0z" />
    <glyph glyph-name="yundong3" unicode="&#xe63f;" 
d="M808.5 681.5q-59.5 59.5 -136.5 91.5t-161 32t-160.5 -32t-136 -91.5t-91.5 -136t-32 -160.5t32 -160.5t91.5 -136t136 -91.5t160.5 -32t161 32t136.5 91.5t91 136t31.5 160.5t-31.5 160.5t-91 136zM876 385v3.5v3.5q-137 -3 -240 -93l-87 87l238 238q89 -103 89 -239z
M636 222l113 -114q-82 -71 -190 -85q4 113 77 199zM510 425l-84 84q89 103 92 241q131 -2 230 -87zM484 749q-12 -1 -21 -2q11 1 21 2zM463 747q-4 -113 -76 -199l-114 114q-13 -12 -20 -19q87 88 210 104zM235 623l113 -114q-85 -72 -198 -76q14 108 85 190zM146 385v-3.5
v-3.5q138 3 241 93l85 -85l-238 -238q11 -14 19 -21q-52 52 -79.5 118.5t-27.5 139.5zM150 433q-1 -8 -3 -20q1 9 3 20zM272 109l238 238l87 -86q-89 -103 -92 -241h3h3q-136 0 -239 89zM559 23q-11 -1 -20 -2q11 1 20 2zM788 147l-114 114q86 72 199 76q-14 -108 -85 -190z
M875 357q-1 -8 -2 -20q1 9 2 20z" />
    <glyph glyph-name="leimuxizhubao" unicode="&#xe659;" 
d="M785 605q-9 24 -20 36.5t-33 12.5h-440q-36 0 -53 -49q-42 -78 -44 -93q-2 -21 12 -35l271 -349q14 -14 34 -14t35 15l269 347q15 15 13 37q-2 20 -44 92zM766 597l1 -2q40 -69 42 -84q0 -6 -2 -11h-161l-43 133h129q12 0 19 -7.5t15 -28.5zM509 135h-0.5h-0.5l-125 354
h251zM382 500l43 133h168l42 -133h-253zM258 597q7 20 14.5 28t19.5 8h122l-43 -133h-154q-2 5 -2 10q2 12 43 87zM224 489h149l122 -349l-1 0.5t-1 1.5zM532 143q-4 -5 -12 -7l124 353h156z" />
    <glyph glyph-name="quanbu15" unicode="&#xe653;" 
d="M179 179q0 111 18.5 130t130 19t130.5 -19t19 -130.5t-19 -130t-130.5 -18.5t-130 18.5t-18.5 130.5v0zM402 179q0 74 -74.5 74t-74.5 -74.5t74.5 -74.5t74.5 75v0zM551 179q0 111 18.5 130t130.5 19t130.5 -19t18.5 -130.5t-18.5 -130t-130.5 -18.5t-130.5 18.5
t-18.5 130.5v0zM775 179q0 74 -74.5 74t-74.5 -74.5t74.5 -74.5t74.5 75v0zM179 551q0 112 18.5 130.5t130 18.5t130.5 -18.5t19 -130.5t-19 -130.5t-130.5 -18.5t-130 18.5t-18.5 130.5v0zM402 551q0 75 -74.5 75t-74.5 -74.5t74.5 -74.5t74.5 74v0zM551 551
q0 112 18.5 130.5t130.5 18.5t130.5 -18.5t18.5 -130.5t-18.5 -130.5t-130.5 -18.5t-130.5 18.5t-18.5 130.5v0zM775 551q0 75 -74.5 75t-74.5 -74.5t74.5 -74.5t74.5 74v0zM775 551z" />
    <glyph glyph-name="zhubao2" unicode="&#xe736;" 
d="M510 -10v0q-17 0 -29 13l-409 495q-3 4 -5 8q-11 19 -1 37l123 216q11 19 32 19h578q22 0 33 -19l122 -214q0 -1 1 -2q7 -14 3 -29q-3 -9 -10 -15l-409 -496q-11 -13 -29 -13zM144 529l366 -443l366 443l-99 174h-534zM899 498h-778q-15 0 -26 11t-11 26.5t11 26.5t26 11
h778q16 0 27 -11t11 -26.5t-11 -26.5t-27 -11zM492 30q-12 0 -22 7.5t-14 19.5l-134 452q-4 15 3.5 28.5t22 18t28.5 -3t18 -22.5l134 -451q5 -15 -2.5 -29t-22.5 -18q-5 -2 -11 -2zM353 520q-6 0 -13 2q-14 5 -20.5 19t-1.5 29l65 176q5 14 19 20.5t28.5 1.5t21 -19
t1.5 -29l-64 -176q-9 -24 -36 -24zM528 30q-5 0 -10 2q-15 4 -22.5 18t-3.5 29l134 451q5 15 18.5 22.5t28.5 3t22.5 -18t2.5 -28.5l-134 -452q-3 -12 -13.5 -19.5t-22.5 -7.5zM667 520q-26 0 -35 24l-64 176q-6 15 0.5 29t21.5 19t29 -1.5t19 -20.5l64 -176q6 -15 -0.5 -29
t-21.5 -19q-6 -2 -13 -2z" />
    <glyph glyph-name="xiezi" unicode="&#xe6f4;" 
d="M662 32q-63 0 -111.5 14t-87.5 56q-27 29 -64 98q-33 62 -56 90q-3 3 -7 8q-29 37 -53 51l-8 4v-298q0 -9 -5.5 -15.5t-14.5 -6.5h-88q-9 0 -15.5 6.5t-6.5 15.5q-3 182 -34 305q-4 17 -16 52q-19 54 -22 81q-16 117 45 192q40 49 66 49q5 0 10 -1q17 -6 36 -22.5
t29.5 -29.5t28.5 -36q7 -9 10 -14q58 -73 124 -173l18 -28q18 -28 28.5 -43.5t30.5 -40t36 -38t38.5 -23.5t45.5 -10v0q32 0 65 19q2 1 5 2q4 2 7 2v0h1q4 1 9 1q29 0 86 -36q13 -8 19 -11q61 -34 90 -60q60 -53 37 -95q-12 -21 -35.5 -34.5t-58 -19t-56.5 -7.5t-57 -3h-17
q-38 -1 -52 -1v0zM659 77h23q8 -1 26 -1q116 0 170 27q19 10 20.5 18.5t-15.5 25.5q-25 25 -65 49q-29 17 -52 29q-3 2 -11 7q-35 22 -47 22h-2h-1l-1 -1q-39 -21 -80 -21q-51 0 -101 32.5t-87 90.5l-27 42q-40 63 -62.5 97t-61 84.5t-74.5 86.5l-3 3q-13 13 -20 18l-3 2
l-3 -3q-14 -10 -25 -22q-28 -32 -38 -74.5t-5 -80t20 -72.5q30 -73 41 -158.5t13 -194.5v-5h42v307q0 10 8 15.5t19 5.5h5q33 -5 75 -42q26 -24 50 -57.5t36.5 -56t33.5 -62.5q23 -44 62 -76t87 -34q20 -1 49 -1h4v0z" />
    <glyph glyph-name="all1" unicode="&#xe6d3;" horiz-adv-x="1065" 
d="M638 427h310q21 0 35.5 14.5t14.5 36.5v302q0 22 -14.5 36t-35.5 14h-310q-22 0 -36 -14t-14 -36v-302q-3 -19 12.5 -35t37.5 -16zM422 834h-310q-21 0 -35.5 -14.5t-14.5 -35.5v-303q0 -21 14.5 -35.5t35.5 -14.5h310q22 0 36 14.5t14 35.5v303q3 21 -12.5 35.5
t-37.5 14.5zM422 341h-310q-21 0 -35.5 -14.5t-14.5 -36.5v-306q0 -21 14.5 -35.5t35.5 -14.5h310q22 0 36 14.5t14 35.5v303q3 21 -12.5 37.5t-37.5 16.5zM948 341h-310q-22 0 -36 -14.5t-14 -36.5v-302q0 -22 14 -36t36 -14h310q21 0 35.5 14t14.5 36v302q0 20 -14.5 35.5
t-35.5 15.5zM940 -8h-298v291h298v-291z" />
    <glyph glyph-name="xiezi1" unicode="&#xe656;" horiz-adv-x="1267" 
d="M1174 796q-13 17 -27 32.5t-25.5 25.5t-20.5 17.5t-14.5 11.5l-5.5 4l-18 9l-14 -14q-83 -83 -150.5 -164t-117 -157.5t-76 -122.5t-59.5 -111q-49 -94 -76 -127t-67 -33q-27 0 -57 29q-25 25 -43 25q-243 0 -346 -113q-25 -29 -39 -61t-16 -44.5t-2 -19.5v-2l25 -109
h718l23 104q75 196 201 322q44 44 77 68v-494h130l4 23q8 35 48 293t40 307q-5 180 -92 301v0zM66 -78l-7 32h648l-7 -32h-634zM1042 429q-58 -40 -115 -97q-128 -131 -207 -326h-661q13 35 38 63q85 92 302 95l1 -1v-1l2 -1l1 -1l1 -1l1 -1l1 -1l2 -2q45 -45 93 -45
q19 0 36.5 5t31 12t28 22t24 27t23.5 36.5t22.5 40t24.5 47.5q34 65 57.5 107t70.5 115.5t109 149.5t139 154q27 -19 63 -66q74 -100 78 -249q-73 -17 -166 -82v0zM1096 -78v32h37q-5 -23 -5 -32h-32zM1142 8h-46v394q34 21 62 34q7 3 25.5 11t26.5 12q-14 -114 -68 -451v0z
M1142 8z" />
    <glyph glyph-name="yundongzhishu" unicode="&#xe622;" 
d="M512.5 794q-111.5 0 -206 -55t-149.5 -149.5t-55 -206t55 -206t149.5 -149t206 -54.5t206 54.5t149 149t54.5 206t-54.5 206t-149 149.5t-206 55zM512 762q147 0 256 -100l-255 -255l-108 108q74 85 74 197q0 24 -4 48q19 2 37 2zM444 756q3 -22 3 -44q0 -99 -65 -174
l-125 125q81 73 187 93zM233 639l126 -126q-78 -70 -182 -69q-19 0 -38 3q19 109 94 192zM134 384q0 15 2 31q20 -3 41 -3q117 0 204 79l107 -108l-254 -255q-100 109 -100 256zM512 6q-146 0 -254 98l255 255l109 -109q-78 -86 -78 -202q0 -20 3 -41q-17 -1 -35 -1zM578 12
q-2 18 -2 36q0 103 68 180l123 -123q-81 -74 -189 -93zM791 129l-123 123q76 65 177 65q19 0 39 -2q-20 -106 -93 -186zM845 349q-114 0 -199 -75l-109 109l255 255q98 -108 98 -254q0 -19 -2 -38q-21 3 -43 3z" />
    <glyph glyph-name="nanzhuangnanxie" unicode="&#xe867;" 
d="M953 591q-7 33 -38 53l-201 162h-1v0l-1 1h-0.5t-1 0.5l-0.5 0.5l-0.5 0.5l-0.5 0.5h-0.5t-1 0.5t-1 0.5h-0.5h-0.5t-1 0.5l-0.5 0.5h-0.5h-1h-1t-0.5 0.5t-0.5 0.5h-1h-1h-0.5h-0.5h-1h-0.5h-1v0h-1h-0.5h-0.5h-1h-1v0q-5 -1 -9 -3h-0.5h-0.5v0q-4 -2 -8 -6v0l-0.5 -0.5
l-0.5 -0.5l-0.5 -0.5l-0.5 -0.5v0l-1 -1v-0.5t-0.5 -0.5t-0.5 -0.5t-0.5 -1l-0.5 -0.5v-0.5t-0.5 -0.5t-0.5 -0.5v-1t-0.5 -0.5t-0.5 -0.5v-1t-0.5 -1l-0.5 -0.5v-0.5v-1v-1t-0.5 -0.5t-0.5 -0.5v-1v-1v-0.5v-1v-0.5v-0.5v-1v0q0 -32 -39 -57q-46 -29 -113 -29v0v0v0v0v0v0
h-1v0q-66 0 -112 29q-39 25 -39 57v0v1v0.5v1t-0.5 1l-0.5 0.5v0.5v1v1v0.5v0.5t-0.5 1l-0.5 0.5v0.5v1t-0.5 0.5t-0.5 0.5v1t-0.5 1l-0.5 0.5v0.5t-0.5 1l-0.5 0.5l-0.5 0.5t-0.5 1v0.5h-1v1v0l-0.5 0.5l-0.5 0.5l-0.5 0.5l-0.5 0.5v0q-4 4 -8 6h-1v0q-4 2 -9 3h-1h-0.5
h-0.5h-0.5h-1.5v0v0h-1h-0.5h-1h-1h-1h-0.5h-0.5t-1 -0.5t-1 -0.5h-0.5h-0.5h-1t-1 -0.5l-0.5 -0.5h-0.5h-1t-0.5 -0.5t-0.5 -0.5h-1t-0.5 -0.5t-0.5 -0.5t-1 -0.5l-0.5 -0.5l-0.5 -0.5l-0.5 -0.5h-1v0l-202 -162q-30 -20 -38 -53q-7 -31 12 -62q2 -2 4 -5l133 -138
q9 -9 22 -9q7 0 13 2v-299q0 -39 27 -66.5t66 -27.5h164h1v0v0v0h1h164q38 0 65.5 27.5t27.5 66.5v299q6 -2 12 -2q13 0 23 9l133 138q2 3 4 5q18 31 11 62zM891 564l-110 -114l-11 10v65l-54 -54v-352q0 -31 -21.5 -52.5t-51.5 -21.5h-130h-1v0v0v0h-1h-130
q-31 0 -52.5 21.5t-21.5 52.5v352l-53 54v-65l-11 -10l-110 114q-5 10 -1 18q4 7 11 11q1 1 3 2l166 134l6 -10q17 -26 48 -45q61 -39 145 -39h1v0q85 0 146 39q30 19 48 45q3 5 5 10l167 -134q1 -1 3 -2q6 -4 10 -11q5 -8 0 -18z" />
    <glyph glyph-name="code" unicode="&#xe623;" 
d="M137 653v0v-537q0 -23 15.5 -39t37.5 -16h644q22 0 37.5 16t15.5 39v537q0 22 -15.5 38t-37.5 16h-644q-22 0 -37.5 -16t-15.5 -38v0v0zM84 653q0 44 31 75.5t75 31.5h644q44 0 75 -31.5t31 -75.5v-537q0 -45 -31 -76.5t-75 -31.5h-644q-44 0 -75 31.5t-31 76.5v537v0v0z
M84 653zM298 330q22 0 37.5 16t15.5 38t-15.5 38t-37.5 16t-38 -16t-16 -38t16 -38t38 -16v0zM512 330q22 0 38 16t16 38t-16 38t-38 16t-38 -16t-16 -38t16 -38t38 -16v0zM726 330q22 0 38 16t16 38t-16 38t-38 16t-37.5 -16t-15.5 -38t15.5 -38t37.5 -16v0zM726 330z" />
    <glyph glyph-name="xiexue" unicode="&#xe625;" 
d="M456 152q-4 -2 -9 -2q-26 -6 -73 -3q-37 2 -69 13q-2 2 -8.5 4.5t-9.5 4.5l-5 3q-9 9 -19 -1q-9 -9 2 -19q6 -6 30 -17q31 -13 77 -16q49 -2 80 4q12 2 17 5q5 2 6.5 7.5t-1.5 9.5q-8 12 -18 7zM857 686v0q-2 2 -4 5q-1 1 -1.5 2.5t-1.5 2.5q-35 51 -61 72.5t-50 21.5
q-26 0 -65 -45t-150 -199q-50 -71 -97 -131q-25 -30 -48.5 -41.5t-66.5 -18.5q-3 -1 -10 -1.5t-10 -1.5q-1 0 -4 -1t-5 -1q-1 0 -3.5 -0.5t-6.5 -1.5t-7 -2q-10 -2 -20.5 -3t-13.5 -2q-64 -12 -94 -31.5t-30 -55.5q0 -47 23.5 -111t47.5 -83t105.5 -36t152.5 -17
q74 0 123 20q28 13 46.5 45t31.5 88q1 6 5 23.5t7 33.5q5 21 23 73t30 72l-10 -302q0 -11 8 -22q9 -9 23 -9h51q13 0 22 8t9 21q0 9 3 87q9 119 24 203q4 23 17 53q2 5 10 26q2 1 2 3q20 49 28 79.5t8 69.5q2 28 -6.5 49t-34.5 58zM841 449q-1 -2 -1 -4q-5 -10 -12 -27
q-13 -32 -17 -58q-18 -101 -26 -206q-3 -41 -3 -89q0 -4 -5 -4h-52h-3l-5 2l12 343l1 33l-22 -24q-20 -20 -49 -92t-34 -99q-3 -17 -12 -57q-23 -96 -65 -116q-46 -19 -113 -19q-65 0 -143.5 16t-96.5 31q-20 14 -41 73t-21 101q0 22 25 36t79 25q17 3 33 5q3 1 7 1.5t6 1
t4 1.5q1 0 4 0.5t4 0.5l21 4q47 6 74.5 20t56.5 48q36 46 97 133q98 138 138 186t57 48q32 0 90 -84q1 -1 2 -2.5t2 -2.5q2 -2 3 -5l11 7l-11 -5q40 -56 40 -84q0 -34 -7.5 -63t-27.5 -75z" />
    <glyph glyph-name="nvxie-copy" unicode="&#xe626;" 
d="M429 -20q-88 0 -203.5 12t-145.5 28q-10 5 -12 16q-6 16 -4 42.5t9 52.5t28.5 53t54.5 44v0q70 37 146 43q22 2 33 4.5t28 13.5t38 34q25 28 85 95q71 80 112.5 125.5t104 109t103.5 96.5q9 7 21 5q18 -3 37.5 -13t40 -29.5t33.5 -47.5t19.5 -67.5t-2.5 -90.5
q-11 -62 -37 -130q-19 -52 -23 -87q-12 -115 -7 -276q1 -10 -6.5 -17.5t-17.5 -7.5l-89 -2q-11 0 -19 7q-7 7 -7 18v350q0 -1 -4.5 -3.5t-11.5 -7.5t-13 -10q-18 -16 -43.5 -54.5t-41 -68t-43.5 -82.5q-44 -85 -64.5 -115.5t-39.5 -35.5q-14 -4 -59 -4zM115 60
q47 -15 187 -24.5t172 -3.5q14 11 74 127q29 56 46 87.5t44 72t49 59.5q47 41 80 35q21 -4 29 -21q3 -5 3 -11v-345l39 1q-4 154 7 258q4 41 26 98q25 64 34 121q4 35 4 61t-7.5 47t-15.5 34t-20.5 23t-21 15t-16.5 8q-40 -33 -99.5 -94t-98.5 -104t-106 -119
q-61 -68 -86 -95q-27 -30 -52 -45t-39.5 -18.5t-40.5 -5.5q-66 -5 -127 -37v0q-23 -12 -38 -30t-19.5 -35t-6.5 -33.5t0 -25.5v0z" />
    <glyph glyph-name="mininvzhuang" unicode="&#xe8ef;" 
d="M877 83l-224 301q63 125 96 275q9 29 -13 51q-26 26 -45 26h-96q-9 0 -17 -8t-8 -18q0 -21 -15.5 -39t-42.5 -18t-42.5 18t-15.5 39q0 10 -8 18t-17 8h-90q-13 0 -26.5 -7.5t-24.5 -18.5q-13 -12 -13 -51q31 -152 96 -275l-224 -294q-13 -13 -13 -52q10 -30 32 -44
q29 -20 71 -20q55 0 89 26q24 19 51.5 19t51.5 -19q32 -32 83 -32q45 0 83 26q24 19 51.5 19t51.5 -19q34 -26 89 -26q42 0 71 19q20 10 32 45q0 38 -13 51zM326 672v13q7 6 13 6h77q5 -34 32 -58.5t64 -24.5q36 0 64 23t38 54h77q7 0 13 -6.5t0 -12.5q-33 -147 -90 -269
h-192q-62 125 -96 275zM832 32q-26 -13 -45 -13q-38 0 -57 19q-52 26 -84 26q-38 0 -76 -26q-20 -19 -58 -19q-29 0 -58 19q-33 29 -79.5 29t-80.5 -29q-19 -19 -57 -19q-32 0 -45 13q-6 6 -6 13q0 13 6 13l224 300h198l224 -300q3 -3 4.5 -6.5t2.5 -4.5v-2q-3 -3 -5 -6.5
t-3.5 -5t-4.5 -1.5z" />
    <glyph glyph-name="yanzhengma4" unicode="&#xe62d;" 
d="M120 668v0v-562q0 -24 16.5 -40.5t39.5 -16.5h673q23 0 39.5 16.5t16.5 40.5v562q0 23 -16.5 39.5t-39.5 16.5h-673q-23 0 -39.5 -16.5t-16.5 -39.5v0v0zM64 668q0 46 32.5 79t79.5 33h673q46 0 79 -33t33 -79v-562q0 -47 -33 -80t-79 -33h-673q-47 0 -79.5 33t-32.5 80
v562v0v0zM64 668zM288 330q23 0 39.5 16.5t16.5 40t-16.5 40t-39.5 16.5t-39.5 -16.5t-16.5 -40t16.5 -40t39.5 -16.5v0zM512 330q23 0 39.5 16.5t16.5 40t-16.5 40t-39.5 16.5t-39.5 -16.5t-16.5 -40t16.5 -40t39.5 -16.5v0zM736 330q24 0 40 16.5t16 40t-16 40t-39.5 16.5
t-40 -16.5t-16.5 -40t16.5 -40t39.5 -16.5v0zM736 330z" />
    <glyph glyph-name="quanbu16" unicode="&#xe667;" 
d="M383 782h-244q-31 0 -53 -22t-22 -53v-244q0 -31 22 -53t53 -22h244q31 0 53 22t22 53v244q0 31 -22 53t-53 22zM937 638l-172 173q-22 22 -53 22t-53 -22l-173 -173q-22 -22 -22 -53t22 -53l173 -173q22 -22 53 -22t53 22l172 173q22 22 22 53t-22 53zM383 331h-244
q-31 0 -53 -22t-22 -53v-244q0 -31 22 -53t53 -22h244q31 0 53 22t22 53v244q0 31 -22 53t-53 22zM834 331h-244q-31 0 -53 -22t-22 -53v-244q0 -31 22 -53t53 -22h244q31 0 53 22t22 53v244q0 31 -22 53t-53 22z" />
    <glyph glyph-name="chengpinxie" unicode="&#xe6a5;" 
d="M100 359q-36 -18 -56 -51.5t-20 -72.5v-118q0 -34 24 -58t58 -24h812q34 0 58 24t24 58v58v4.5v3.5v370q0 10 -7 17t-17 7h-386l-68 116q-17 29 -50 37.5t-62 -8.5t-37.5 -50t8.5 -62l46 -79zM459 204l-145 214l212 111h143l106 -155q-42 -14 -69 -50.5t-27 -82.5v-37
h-220zM952 203l-225 1v37q0 38 27 65t65 27h132v-129zM122 317l133 70v-3q0 -38 -27 -65t-65 -27h-71q12 15 30 24v1v0zM300 354l102 -150h-331v31q0 5 1 10h91q50 0 88 31t49 78zM481 669l53 -92h-14q-5 0 -11 -3l-40 -21l-47 81q-8 12 -4 25.5t16 21t25.5 4t21.5 -15.5z
M951 529v-147h-123l-100 147h223zM105 82q-14 0 -24 10t-10 24v39h881v-39q0 -14 -10.5 -24t-24.5 -10h-812v0z" />
    <glyph glyph-name="xie" unicode="&#xe652;" 
d="M98 0q-37 127 30 215q31 40 63.5 63.5t88.5 38t138 14.5q33 11 54.5 22.5t36.5 29.5t23 32t22 45q20 43 22 104t-5 100l-8 40q0 6 8.5 26t12.5 20l332 -3q5 0 8.5 -9.5t3.5 -15.5v-646q0 -1 2 -9.5t2 -16.5t-4.5 -22t-15.5 -28h-814v0zM837 350l5 -1zM911 769h-313
q-20 0 -34 -14t-14 -34v-178q0 -83 -59 -142t-142 -59q-5 0 -5 -1q-117 -4 -197.5 -88t-80.5 -201v-10v-4q0 -20 14 -34t34 -14h797q19 0 33 14t14 34v7v7v669q0 20 -14 34t-33 14zM585 483h65q9 0 15 6t6 15t-6 15t-15 6h-58q1 9 1 18v51h126q9 0 15.5 6t6.5 15t-6.5 15
t-15.5 6h-126v85q0 5 5 5h313q5 0 5 -5l-1 -496h-338h-2q-40 68 -122 97q49 24 84 66t48 95zM911 33h-797q-5 0 -5 5v2v2v10q0 100 68.5 171.5t168.5 74.5l3 1h4q10 0 21 -1t31.5 -5.5t39.5 -11.5t40.5 -21.5t38 -34.5t28.5 -51t15 -69q1 -8 7 -14t14 -6h2q9 1 14.5 8
t5.5 16q-4 39 -15 73h320v-131l-1 -7l2 -6q0 -5 -5 -5z" />
    <glyph glyph-name="nanxie2" unicode="&#xe641;" 
d="M512.5 895q-104.5 0 -199 -40.5t-163 -109t-109 -163t-40.5 -199t40.5 -199t109 -163t163 -109t199 -40.5t199 40.5t163 109t109 163t40.5 199t-40.5 199t-109 163t-163 109t-199 40.5zM512.5 -77q-93.5 0 -179 36.5t-147 98t-98 147t-36.5 179t36.5 179t98 147t147 98
t179 36.5t179 -36.5t147 -98t98 -147t36.5 -179t-36.5 -179t-98 -147t-147 -98t-179 -36.5zM797 559q16 4 25.5 -6t15.5 -24q7 -14 17.5 -47t13.5 -81q4 -47 -3 -72.5t-11 -25.5h-10l-22 2q-13 1 -29.5 1t-35.5 -1h-23q-16 1 -36.5 -0.5t-45 -8t-49.5 -20.5
q-29 -16 -49.5 -29.5t-46.5 -23.5t-63.5 -15.5t-99.5 -5.5q-36 0 -67 2t-54 5q-26 3 -51 8q-9 11 -14 24q-5 11 -7 26t4 32q6 15 17 25t25 15t30 5q5 1 11 1q11 0 22 -1q33 -4 63.5 3.5t57.5 20t49.5 29.5t40.5 33t29 31t18 28t11 24t6 18q6 17 19 23t29 2q24 -8 55 -10.5
t70 -0.5q21 1 35.5 2.5t24.5 3.5l16 4zM563 504q-9 0 -15.5 -7t-6.5 -16q0 -8 6.5 -15t15.5 -7t15.5 7t6.5 15q0 9 -6.5 16t-15.5 7zM514 442q-10 0 -16.5 -6.5t-6.5 -15.5q0 -10 6.5 -16.5t16.5 -6.5t16.5 6.5t6.5 16.5q0 9 -6.5 15.5t-16.5 6.5zM842 275h-112
q-16 0 -28 -1h-15q-9 0 -15.5 -6.5t-6.5 -23.5q0 -14 8 -20.5t16 -6.5h152q8 0 15.5 5.5t7.5 22.5q0 16 -6 22.5t-16 7.5z" />
    <glyph glyph-name="quanbu17" unicode="&#xe6bb;" 
d="M351 357h-215q-56 0 -95.5 -39.5t-39.5 -94.5v-215q0 -56 39.5 -95.5t95.5 -39.5h215q55 0 94.5 39.5t39.5 95.5v215q0 55 -39.5 94.5t-94.5 39.5zM431 8q0 -34 -23.5 -57.5t-56.5 -23.5h-215q-34 0 -57.5 23.5t-23.5 57.5v215q0 33 23.5 56.5t57.5 23.5h215
q33 0 56.5 -23.5t23.5 -56.5v-215v0zM888 357h-215q-55 0 -94.5 -39.5t-39.5 -94.5v-215q0 -56 39.5 -95.5t94.5 -39.5h215q56 0 95.5 39.5t39.5 95.5v215q0 55 -39.5 94.5t-95.5 39.5zM969 8q0 -34 -23.5 -57.5t-57.5 -23.5h-215q-33 0 -56.5 23.5t-23.5 57.5v215
q0 33 23.5 56.5t56.5 23.5h215q34 0 57.5 -23.5t23.5 -56.5v-215zM888 895h-215q-55 0 -94.5 -39.5t-39.5 -95.5v-215q0 -55 39.5 -94.5t94.5 -39.5h215q56 0 95.5 39.5t39.5 94.5v215q0 56 -39.5 95.5t-95.5 39.5zM969 545q0 -33 -23.5 -56.5t-57.5 -23.5h-215
q-33 0 -56.5 23.5t-23.5 56.5v215q0 34 23.5 57.5t56.5 23.5h215q34 0 57.5 -23.5t23.5 -57.5v-215zM351 895h-215q-56 0 -95.5 -39.5t-39.5 -95.5v-215q0 -55 39.5 -94.5t95.5 -39.5h215q55 0 94.5 39.5t39.5 94.5v215q0 56 -39.5 95.5t-94.5 39.5zM431 545
q0 -33 -23.5 -56.5t-56.5 -23.5h-215q-34 0 -57.5 23.5t-23.5 56.5v215q0 34 23.5 57.5t57.5 23.5h215q33 0 56.5 -23.5t23.5 -57.5v-215v0z" />
  </font>
</defs>
</svg>
